<?xml version="1.0" encoding="UTF-8" standalone="no"?>
<!-- Created with Inkscape (http://www.inkscape.org/) -->

<svg
   xmlns:dc="http://purl.org/dc/elements/1.1/"
   xmlns:cc="http://creativecommons.org/ns#"
   xmlns:rdf="http://www.w3.org/1999/02/22-rdf-syntax-ns#"
   xmlns:svg="http://www.w3.org/2000/svg"
   xmlns="http://www.w3.org/2000/svg"
   xmlns:sodipodi="http://sodipodi.sourceforge.net/DTD/sodipodi-0.dtd"
   xmlns:inkscape="http://www.inkscape.org/namespaces/inkscape"
   width="68mm"
   height="48mm"
   viewBox="0 0 68 48"
   version="1.1"
   id="svg8"
   inkscape:version="0.92.3 (2405546, 2018-03-11)"
   sodipodi:docname="Hexagon_2R.svg">
  <defs
     id="defs2" />
  <sodipodi:namedview
     id="base"
     pagecolor="#ffffff"
     bordercolor="#666666"
     borderopacity="1.0"
     inkscape:pageopacity="0.0"
     inkscape:pageshadow="2"
     inkscape:zoom="1.979899"
     inkscape:cx="-9.4116179"
     inkscape:cy="53.304783"
     inkscape:document-units="mm"
     inkscape:current-layer="layer1"
     showgrid="false"
     inkscape:pagecheckerboard="true"
     inkscape:window-width="1920"
     inkscape:window-height="1137"
     inkscape:window-x="1352"
     inkscape:window-y="-8"
     inkscape:window-maximized="1" />
  <metadata
     id="metadata5">
    <rdf:RDF>
      <cc:Work
         rdf:about="">
        <dc:format>image/svg+xml</dc:format>
        <dc:type
           rdf:resource="http://purl.org/dc/dcmitype/StillImage" />
        <dc:title />
      </cc:Work>
    </rdf:RDF>
  </metadata>
  <g
     inkscape:label="Layer 1"
     inkscape:groupmode="layer"
     id="layer1"
     transform="translate(0,-249)">
    <g
       id="g864"
       style="fill:#ffffff">
      <path
         transform="rotate(30.018398,22.535342,267.53733)"
         d="M 47.556618,273 35.778309,293.40063 H 12.221691 L 0.44338226,273 12.221691,252.59937 l 23.556618,0 z"
         inkscape:randomized="0"
         inkscape:rounded="0"
         inkscape:flatsided="true"
         sodipodi:arg2="0.52359878"
         sodipodi:arg1="0"
         sodipodi:r2="20.400631"
         sodipodi:r1="23.556618"
         sodipodi:cy="273"
         sodipodi:cx="24"
         sodipodi:sides="6"
         id="path815"
         style="fill:#ffffff;fill-opacity:1;stroke:none;stroke-width:0.95457381;stroke-linecap:round;stroke-miterlimit:4;stroke-dasharray:none;stroke-opacity:1"
         sodipodi:type="star" />
      <path
         transform="rotate(30.018398,35.494809,315.96935)"
         d="M 47.556618,273 35.778309,293.40063 H 12.221691 L 0.44338226,273 12.221691,252.59937 l 23.556618,0 z"
         inkscape:randomized="0"
         inkscape:rounded="0"
         inkscape:flatsided="true"
         sodipodi:arg2="0.52359878"
         sodipodi:arg1="0"
         sodipodi:r2="20.400631"
         sodipodi:r1="23.556618"
         sodipodi:cy="273"
         sodipodi:cx="24"
         sodipodi:sides="6"
         id="path815-1"
         style="fill:#ffffff;fill-opacity:1;stroke:none;stroke-width:0.95457381;stroke-linecap:round;stroke-miterlimit:4;stroke-dasharray:none;stroke-opacity:1"
         sodipodi:type="star" />
    </g>
    <g
       aria-label="2R"
       transform="matrix(1.2519595,0,0,1.2519595,-67.727855,322.13051)"
       style="font-style:normal;font-variant:normal;font-weight:bold;font-stretch:normal;font-size:39.99874115px;line-height:1.25;font-family:Calibri;-inkscape-font-specification:'Calibri, Bold';font-variant-ligatures:normal;font-variant-caps:normal;font-variant-numeric:normal;font-feature-settings:normal;text-align:center;letter-spacing:0px;word-spacing:0px;writing-mode:lr-tb;text-anchor:middle;fill:#000000;fill-opacity:1;stroke:none"
       id="flowRoot817">
      <path
         d="m 78.159266,-28.530333 q 0,0.566389 -0.05859,0.976532 -0.03906,0.390613 -0.136715,0.644511 -0.09765,0.253898 -0.253898,0.371082 -0.156245,0.09765 -0.351551,0.09765 H 62.827717 q -0.429674,0 -0.742164,-0.07812 -0.31249,-0.07812 -0.507797,-0.29296 -0.195306,-0.234367 -0.292959,-0.664041 -0.07812,-0.429674 -0.07812,-1.113247 0,-0.64451 0.05859,-1.093715 0.05859,-0.468735 0.214837,-0.820287 0.156245,-0.371082 0.390613,-0.703103 0.253898,-0.351551 0.644511,-0.761694 l 4.374862,-4.687353 q 1.308553,-1.367144 2.109309,-2.480391 0.800756,-1.132776 1.24996,-2.050716 0.449205,-0.937471 0.60545,-1.718696 0.175776,-0.781226 0.175776,-1.484328 0,-0.644511 -0.214837,-1.2109 -0.195306,-0.585919 -0.60545,-1.015593 -0.390613,-0.429674 -0.996062,-0.664042 -0.60545,-0.253898 -1.425737,-0.253898 -1.152307,0 -2.050716,0.29296 -0.878879,0.292959 -1.562451,0.664041 -0.664042,0.351552 -1.113246,0.664042 -0.449205,0.292959 -0.703103,0.292959 -0.175776,0 -0.31249,-0.117183 -0.117184,-0.117184 -0.195307,-0.390613 -0.07812,-0.273429 -0.136714,-0.722634 -0.03906,-0.468735 -0.03906,-1.132776 0,-0.449205 0.01953,-0.742165 0.03906,-0.31249 0.09765,-0.527327 0.05859,-0.234367 0.156245,-0.390612 0.09765,-0.175776 0.332021,-0.410144 0.253898,-0.234367 0.898409,-0.585919 0.664042,-0.371082 1.621043,-0.703103 0.957001,-0.351551 2.109309,-0.585919 1.152307,-0.234367 2.402268,-0.234367 1.972594,0 3.437392,0.507796 1.484328,0.488266 2.46086,1.386675 0.976532,0.878879 1.445267,2.109309 0.488266,1.210899 0.488266,2.617105 0,1.23043 -0.234368,2.421799 -0.234368,1.191369 -0.976532,2.578044 -0.742164,1.367144 -2.089778,3.046779 -1.347614,1.660104 -3.574106,3.867066 l -2.949126,3.027248 h 9.960624 q 0.195307,0 0.351552,0.117184 0.175775,0.117184 0.292959,0.371082 0.117184,0.234368 0.175776,0.644511 0.05859,0.390613 0.05859,0.93747 z"
         id="path2550"
         inkscape:connector-curvature="0"
         style="fill:#000000" />
      <path
         d="m 101.30307,-27.104596 q 0,0.214837 -0.0781,0.371082 -0.0781,0.136714 -0.37109,0.234367 -0.29296,0.09765 -0.859344,0.136715 -0.566388,0.03906 -1.54292,0.03906 -0.820287,0 -1.308552,-0.03906 -0.488266,-0.03906 -0.781226,-0.136715 -0.273429,-0.117183 -0.390613,-0.273428 -0.117183,-0.175776 -0.195306,-0.410144 l -2.265554,-5.644353 q -0.410143,-0.957002 -0.800756,-1.699166 -0.390612,-0.742164 -0.878878,-1.23043 -0.468735,-0.507796 -1.093716,-0.761694 -0.62498,-0.253899 -1.445267,-0.253899 h -1.601512 v 9.628604 q 0,0.195306 -0.136714,0.351551 -0.117184,0.156245 -0.410144,0.253898 -0.292959,0.09765 -0.781225,0.156245 -0.488266,0.05859 -1.249961,0.05859 -0.742164,0 -1.24996,-0.05859 -0.488266,-0.05859 -0.781226,-0.156245 -0.292959,-0.09765 -0.410143,-0.253898 -0.117184,-0.156245 -0.117184,-0.351551 v -22.948497 q 0,-0.859348 0.429674,-1.23043 0.449205,-0.390613 1.093716,-0.390613 h 6.542762 q 0.996063,0 1.640574,0.03906 0.644511,0.03906 1.171838,0.09765 1.523389,0.214837 2.734289,0.742164 1.23043,0.527327 2.070247,1.386675 0.859348,0.839817 1.308553,2.011655 0.449204,1.152308 0.449204,2.656167 0,1.269491 -0.33202,2.324145 -0.312491,1.035124 -0.937471,1.855411 -0.62498,0.820286 -1.54292,1.425736 -0.91794,0.60545 -2.089778,0.976532 0.566388,0.273429 1.054654,0.664042 0.507797,0.390612 0.937471,0.957001 0.449204,0.546857 0.839817,1.269491 0.390613,0.703103 0.761695,1.601512 l 2.128836,4.980312 q 0.29296,0.742164 0.39062,1.093716 0.0977,0.33202 0.0977,0.527327 z m -6.620886,-17.147898 q 0,-1.249961 -0.566389,-2.109309 -0.566388,-0.859348 -1.85541,-1.210899 -0.390613,-0.09765 -0.898409,-0.156245 -0.488266,-0.05859 -1.367145,-0.05859 h -2.304615 v 7.167743 h 2.617105 q 1.093716,0 1.914002,-0.253898 0.820287,-0.273429 1.367145,-0.742164 0.546858,-0.488266 0.820287,-1.152308 0.273429,-0.664041 0.273429,-1.484328 z"
         id="path2552"
         inkscape:connector-curvature="0"
         style="fill:#000000" />
    </g>
  </g>
</svg>
