<?xml version="1.0" encoding="UTF-8" standalone="no"?>
<!-- Created with Inkscape (http://www.inkscape.org/) -->

<svg
   xmlns:dc="http://purl.org/dc/elements/1.1/"
   xmlns:cc="http://creativecommons.org/ns#"
   xmlns:rdf="http://www.w3.org/1999/02/22-rdf-syntax-ns#"
   xmlns:svg="http://www.w3.org/2000/svg"
   xmlns="http://www.w3.org/2000/svg"
   xmlns:sodipodi="http://sodipodi.sourceforge.net/DTD/sodipodi-0.dtd"
   xmlns:inkscape="http://www.inkscape.org/namespaces/inkscape"
   width="48mm"
   height="48mm"
   viewBox="0 0 48 48"
   version="1.1"
   id="svg8"
   inkscape:version="0.92.3 (2405546, 2018-03-11)"
   sodipodi:docname="Hexagon_0.svg">
  <defs
     id="defs2" />
  <sodipodi:namedview
     id="base"
     pagecolor="#ffffff"
     bordercolor="#666666"
     borderopacity="1.0"
     inkscape:pageopacity="0.0"
     inkscape:pageshadow="2"
     inkscape:zoom="2.8"
     inkscape:cx="-19.065704"
     inkscape:cy="126.34235"
     inkscape:document-units="mm"
     inkscape:current-layer="layer1"
     showgrid="false"
     inkscape:pagecheckerboard="true"
     inkscape:window-width="1920"
     inkscape:window-height="1137"
     inkscape:window-x="1352"
     inkscape:window-y="-8"
     inkscape:window-maximized="1" />
  <metadata
     id="metadata5">
    <rdf:RDF>
      <cc:Work
         rdf:about="">
        <dc:format>image/svg+xml</dc:format>
        <dc:type
           rdf:resource="http://purl.org/dc/dcmitype/StillImage" />
        <dc:title />
      </cc:Work>
    </rdf:RDF>
  </metadata>
  <g
     inkscape:label="Layer 1"
     inkscape:groupmode="layer"
     id="layer1"
     transform="translate(0,-249)">
    <path
       sodipodi:type="star"
       style="fill:#ffffff;fill-opacity:1;stroke:none;stroke-width:0.95457381;stroke-linecap:round;stroke-miterlimit:4;stroke-dasharray:none;stroke-opacity:1"
       id="path815"
       sodipodi:sides="6"
       sodipodi:cx="24"
       sodipodi:cy="273"
       sodipodi:r1="23.556618"
       sodipodi:r2="20.400631"
       sodipodi:arg1="0"
       sodipodi:arg2="0.52359878"
       inkscape:flatsided="true"
       inkscape:rounded="0"
       inkscape:randomized="0"
       d="M 47.556618,273 35.778309,293.40063 H 12.221691 L 0.44338226,273 12.221691,252.59937 l 23.556618,0 z" />
    <g
       aria-label="0"
       transform="matrix(1.2519595,0,0,1.2519595,-8.8244138,321.92267)"
       style="font-style:normal;font-variant:normal;font-weight:bold;font-stretch:normal;font-size:39.99874115px;line-height:1.25;font-family:Calibri;-inkscape-font-specification:'Calibri, Bold';font-variant-ligatures:normal;font-variant-caps:normal;font-variant-numeric:normal;font-feature-settings:normal;text-align:start;letter-spacing:0px;word-spacing:0px;writing-mode:lr-tb;text-anchor:start;fill:#000000;fill-opacity:1;stroke:none"
       id="flowRoot817">
      <path
         d="m 35.25135,-39.174529 q 0,3.027249 -0.488266,5.468578 -0.488266,2.441329 -1.601512,4.160025 -1.093716,1.718696 -2.871004,2.636636 -1.757757,0.91794 -4.31627,0.91794 -2.597575,0 -4.29674,-0.878879 -1.699165,-0.898409 -2.695228,-2.558513 -0.996062,-1.679634 -1.406205,-4.081903 -0.390613,-2.421798 -0.390613,-5.468577 0,-3.007718 0.488266,-5.449048 0.507796,-2.46086 1.601512,-4.179556 1.113246,-1.718696 2.871003,-2.636635 1.777288,-0.91794 4.316271,-0.91794 2.597574,0 4.296739,0.898409 1.718696,0.878878 2.714759,2.558513 0.996062,1.660104 1.386675,4.081903 0.390613,2.402268 0.390613,5.449047 z m -5.175619,0.253898 q 0,-1.796818 -0.09765,-3.163963 -0.09765,-1.386675 -0.31249,-2.402268 -0.195307,-1.015593 -0.507797,-1.718696 -0.292959,-0.703102 -0.722633,-1.113246 -0.429674,-0.429674 -0.976532,-0.605449 -0.546858,-0.175776 -1.210899,-0.175776 -1.152308,0 -1.914003,0.566388 -0.742164,0.546858 -1.191368,1.660104 -0.429674,1.113246 -0.60545,2.77335 -0.175776,1.660104 -0.175776,3.867066 0,2.695228 0.214837,4.472516 0.214837,1.757757 0.664042,2.812411 0.468735,1.035124 1.191369,1.464798 0.722633,0.410143 1.738226,0.410143 0.761695,0 1.347614,-0.234367 0.585919,-0.253899 1.015593,-0.742165 0.449205,-0.488265 0.742164,-1.23043 0.29296,-0.742164 0.468735,-1.718695 0.195307,-0.976532 0.253899,-2.206962 0.07812,-1.23043 0.07812,-2.714759 z"
         style="font-style:normal;font-variant:normal;font-weight:bold;font-stretch:normal;font-size:39.99874115px;font-family:Calibri;-inkscape-font-specification:'Calibri, Bold';font-variant-ligatures:normal;font-variant-caps:normal;font-variant-numeric:normal;font-feature-settings:normal;text-align:start;writing-mode:lr-tb;text-anchor:start;fill:#000000"
         id="path5887"
         inkscape:connector-curvature="0" />
    </g>
  </g>
</svg>
