<?xml version="1.0" encoding="UTF-8" standalone="no"?>
<!-- Created with Inkscape (http://www.inkscape.org/) -->

<svg
   xmlns:dc="http://purl.org/dc/elements/1.1/"
   xmlns:cc="http://creativecommons.org/ns#"
   xmlns:rdf="http://www.w3.org/1999/02/22-rdf-syntax-ns#"
   xmlns:svg="http://www.w3.org/2000/svg"
   xmlns="http://www.w3.org/2000/svg"
   xmlns:sodipodi="http://sodipodi.sourceforge.net/DTD/sodipodi-0.dtd"
   xmlns:inkscape="http://www.inkscape.org/namespaces/inkscape"
   width="48mm"
   height="48mm"
   viewBox="0 0 48 48"
   version="1.1"
   id="svg8"
   inkscape:version="0.92.3 (2405546, 2018-03-11)"
   sodipodi:docname="HexagonW_3.svg">
  <defs
     id="defs2" />
  <sodipodi:namedview
     id="base"
     pagecolor="#ffffff"
     bordercolor="#666666"
     borderopacity="1.0"
     inkscape:pageopacity="0.0"
     inkscape:pageshadow="2"
     inkscape:zoom="2.8"
     inkscape:cx="67.72001"
     inkscape:cy="109.55664"
     inkscape:document-units="mm"
     inkscape:current-layer="layer1"
     showgrid="false"
     inkscape:pagecheckerboard="true"
     inkscape:window-width="1920"
     inkscape:window-height="1137"
     inkscape:window-x="1352"
     inkscape:window-y="-8"
     inkscape:window-maximized="1" />
  <metadata
     id="metadata5">
    <rdf:RDF>
      <cc:Work
         rdf:about="">
        <dc:format>image/svg+xml</dc:format>
        <dc:type
           rdf:resource="http://purl.org/dc/dcmitype/StillImage" />
        <dc:title></dc:title>
      </cc:Work>
    </rdf:RDF>
  </metadata>
  <g
     inkscape:label="Layer 1"
     inkscape:groupmode="layer"
     id="layer1"
     transform="translate(0,-249)">
    <path
       sodipodi:type="star"
       style="fill:#000000;fill-opacity:1;stroke:none;stroke-width:0.95457381;stroke-linecap:round;stroke-miterlimit:4;stroke-dasharray:none;stroke-opacity:1"
       id="path815"
       sodipodi:sides="6"
       sodipodi:cx="24"
       sodipodi:cy="273"
       sodipodi:r1="23.556618"
       sodipodi:r2="20.400631"
       sodipodi:arg1="0"
       sodipodi:arg2="0.52359878"
       inkscape:flatsided="true"
       inkscape:rounded="0"
       inkscape:randomized="0"
       d="M 47.556618,273 35.778309,293.40063 H 12.221691 L 0.44338226,273 12.221691,252.59937 l 23.556618,0 z" />
    <g
       aria-label="3"
       transform="matrix(1.2519595,0,0,1.2519595,-8.7755129,321.92266)"
       style="font-style:normal;font-variant:normal;font-weight:bold;font-stretch:normal;font-size:39.99874115px;line-height:1.25;font-family:Calibri;-inkscape-font-specification:'Calibri, Bold';font-variant-ligatures:normal;font-variant-caps:normal;font-variant-numeric:normal;font-feature-settings:normal;text-align:start;letter-spacing:0px;word-spacing:0px;writing-mode:lr-tb;text-anchor:start;fill:#ffffff;fill-opacity:1;stroke:none"
       id="flowRoot817">
      <path
         d="m 34.626369,-33.842665 q 0,1.894471 -0.722633,3.359269 -0.722634,1.464798 -2.011656,2.46086 -1.289022,0.996062 -3.08584,1.523389 -1.796819,0.507797 -3.925658,0.507797 -1.289022,0 -2.421799,-0.195306 -1.132776,-0.175776 -2.011655,-0.449205 -0.859348,-0.273429 -1.425736,-0.566388 -0.566389,-0.29296 -0.742165,-0.449205 -0.175775,-0.156245 -0.273428,-0.351551 -0.07812,-0.195307 -0.156246,-0.449205 -0.05859,-0.273429 -0.09765,-0.664042 -0.01953,-0.410143 -0.01953,-0.976531 0,-0.937471 0.156245,-1.289022 0.156245,-0.371082 0.468735,-0.371082 0.195306,0 0.664042,0.273428 0.488265,0.253899 1.23043,0.566389 0.742164,0.292959 1.738226,0.566388 0.996063,0.253899 2.265554,0.253899 1.074185,0 1.894471,-0.253899 0.820287,-0.253898 1.386676,-0.703103 0.585919,-0.468735 0.859348,-1.113246 0.292959,-0.664041 0.292959,-1.464797 0,-0.878879 -0.351551,-1.581982 -0.332021,-0.703103 -1.015593,-1.191369 -0.664042,-0.507796 -1.699166,-0.781225 -1.015593,-0.273429 -2.402268,-0.273429 H 21.03305 q -0.253898,0 -0.429674,-0.05859 -0.175776,-0.07812 -0.29296,-0.292959 -0.117183,-0.214837 -0.175775,-0.585919 -0.03906,-0.390613 -0.03906,-0.996063 0,-0.566388 0.03906,-0.91794 0.05859,-0.371082 0.156245,-0.566388 0.117184,-0.195306 0.273429,-0.273429 0.175775,-0.07812 0.410143,-0.07812 h 2.206962 q 1.132777,0 2.011655,-0.253898 0.878879,-0.273429 1.464798,-0.761695 0.60545,-0.488265 0.91794,-1.171838 0.31249,-0.703103 0.31249,-1.54292 0,-0.644511 -0.214837,-1.210899 -0.214837,-0.585919 -0.644511,-0.996063 -0.410143,-0.429674 -1.074185,-0.664041 -0.664042,-0.253899 -1.562451,-0.253899 -1.015593,0 -1.914002,0.312491 -0.898409,0.292959 -1.621043,0.664041 -0.703103,0.351552 -1.210899,0.664042 -0.488266,0.31249 -0.722634,0.31249 -0.156245,0 -0.273429,-0.05859 -0.117183,-0.07812 -0.195306,-0.273429 -0.07812,-0.195306 -0.117184,-0.566388 -0.03906,-0.371082 -0.03906,-0.957001 0,-0.488266 0.01953,-0.800756 0.01953,-0.332021 0.07812,-0.546858 0.05859,-0.214837 0.136715,-0.371082 0.09765,-0.156245 0.292959,-0.332021 0.195307,-0.195306 0.800756,-0.566389 0.60545,-0.371082 1.52339,-0.722633 0.91794,-0.351551 2.109308,-0.585919 1.2109,-0.253898 2.617106,-0.253898 1.835879,0 3.242085,0.429674 1.425736,0.429674 2.382738,1.24996 0.976531,0.800756 1.464797,1.992125 0.507797,1.171838 0.507797,2.656167 0,1.152307 -0.29296,2.148369 -0.292959,0.996063 -0.859348,1.777288 -0.566388,0.781226 -1.425736,1.328083 -0.839817,0.546858 -1.953064,0.820287 v 0.05859 q 1.328084,0.156245 2.382738,0.683572 1.054654,0.507797 1.777288,1.289022 0.742164,0.781226 1.132776,1.777288 0.390613,0.976532 0.390613,2.109309 z"
         style="font-style:normal;font-variant:normal;font-weight:bold;font-stretch:normal;font-size:39.99874115px;font-family:Calibri;-inkscape-font-specification:'Calibri, Bold';font-variant-ligatures:normal;font-variant-caps:normal;font-variant-numeric:normal;font-feature-settings:normal;text-align:start;writing-mode:lr-tb;text-anchor:start;fill:#ffffff"
         id="path4219"
         inkscape:connector-curvature="0" />
    </g>
  </g>
</svg>
