<?xml version="1.0" encoding="UTF-8" standalone="no"?>
<!-- Created with Inkscape (http://www.inkscape.org/) -->

<svg
   width="100"
   height="100"
   viewBox="0 0 26.458334 26.458333"
   version="1.1"
   id="svg8"
   inkscape:version="1.3 (0e150ed6c4, 2023-07-21)"
   sodipodi:docname="1Progress.svg"
   xmlns:inkscape="http://www.inkscape.org/namespaces/inkscape"
   xmlns:sodipodi="http://sodipodi.sourceforge.net/DTD/sodipodi-0.dtd"
   xmlns="http://www.w3.org/2000/svg"
   xmlns:svg="http://www.w3.org/2000/svg"
   xmlns:rdf="http://www.w3.org/1999/02/22-rdf-syntax-ns#"
   xmlns:cc="http://creativecommons.org/ns#"
   xmlns:dc="http://purl.org/dc/elements/1.1/">
  <defs
     id="defs2">
    <pattern
       y="0"
       x="0"
       height="6"
       width="6"
       patternUnits="userSpaceOnUse"
       id="EMFhbasepattern" />
    <pattern
       y="0"
       x="0"
       height="6"
       width="6"
       patternUnits="userSpaceOnUse"
       id="EMFhbasepattern-8" />
    <pattern
       y="0"
       x="0"
       height="6"
       width="6"
       patternUnits="userSpaceOnUse"
       id="EMFhbasepattern-5" />
    <pattern
       y="0"
       x="0"
       height="6"
       width="6"
       patternUnits="userSpaceOnUse"
       id="EMFhbasepattern-9" />
  </defs>
  <sodipodi:namedview
     id="base"
     pagecolor="#ffffff"
     bordercolor="#666666"
     borderopacity="1.0"
     inkscape:pageopacity="0.0"
     inkscape:pageshadow="2"
     inkscape:zoom="3.8918085"
     inkscape:cx="45.094716"
     inkscape:cy="70.018861"
     inkscape:document-units="mm"
     inkscape:current-layer="layer1-9"
     showgrid="false"
     units="px"
     inkscape:pagecheckerboard="true"
     inkscape:snap-text-baseline="true"
     inkscape:window-width="1920"
     inkscape:window-height="1009"
     inkscape:window-x="1912"
     inkscape:window-y="1072"
     inkscape:window-maximized="1"
     inkscape:showpageshadow="0"
     inkscape:deskcolor="#505050" />
  <metadata
     id="metadata5">
    <rdf:RDF>
      <cc:Work
         rdf:about="">
        <dc:format>image/svg+xml</dc:format>
        <dc:type
           rdf:resource="http://purl.org/dc/dcmitype/StillImage" />
      </cc:Work>
    </rdf:RDF>
  </metadata>
  <g
     inkscape:label="Layer 1"
     inkscape:groupmode="layer"
     id="layer1"
     transform="translate(0,-270.54168)">
    <g
       transform="matrix(0.47925172,0,0,0.47925172,2.8615729,151.81179)"
       id="layer1-3"
       inkscape:label="Layer 1">
      <g
         style="font-style:normal;font-variant:normal;font-weight:bold;font-stretch:normal;font-size:39.9987px;line-height:1.25;font-family:Calibri;-inkscape-font-specification:'Calibri, Bold';font-variant-ligatures:normal;font-variant-caps:normal;font-variant-numeric:normal;font-feature-settings:normal;text-align:center;letter-spacing:0px;word-spacing:0px;writing-mode:lr-tb;text-anchor:middle;fill:#000000;fill-opacity:1;stroke:#ffffff;stroke-width:2.59181;stroke-miterlimit:4;stroke-dasharray:none;stroke-opacity:1;paint-order:markers stroke fill"
         inkscape:label="Layer 1"
         id="layer1-8"
         transform="matrix(2.0865862,0,0,2.0865862,125.54456,-211.28553)" />
      <g
         transform="matrix(1.292492,0,0,1.292492,-8.3621147,-77.407508)"
         id="layer1-9"
         inkscape:label="Layer 1"
         style="stroke:#000000;stroke-width:1.5;stroke-miterlimit:4;stroke-dasharray:none;stroke-opacity:1">
        <path
           id="path834"
           d="m 86.477761,201.26488 -21.459388,29.45541 h 12.267388 v 13.01915 c 0,0.61507 0.47839,1.09347 1.09347,1.09347 h 16.74379 c 0.61508,0 1.09348,-0.4784 1.09348,-1.09347 v -13.01915 h 11.686479 z"
           style="fill:#000000;fill-opacity:1;fill-rule:nonzero;stroke:#000000;stroke-width:4.81811px;stroke-linecap:round;stroke-linejoin:round;stroke-miterlimit:4;stroke-dasharray:none;stroke-opacity:1"
           inkscape:connector-curvature="0" />
        <path
           id="path836"
           d="m 75.436931,238.34722 c 0,-0.89161 0.25473,-1.91059 0.70055,-3.02511 0.4458,-1.17821 0.85977,-2.10167 1.30557,-2.77038 0.41397,-0.70056 0.63688,-1.05083 0.70056,-1.05083 1.87876,1.11452 3.85305,1.6877 5.89103,1.6877 1.30559,0 2.32457,-0.25476 3.08881,-0.76424 0.82792,-0.50949 1.21005,-1.24189 1.21005,-2.13351 0,-0.92346 -0.35028,-1.52848 -1.11452,-1.78324 -0.70055,-0.25474 -1.84691,-0.44579 -3.40724,-0.54134 h -1.75138 c -0.38213,0 -0.76426,-0.44579 -1.11453,-1.4011 -0.31843,-0.9553 -0.47764,-1.87877 -0.47764,-2.80222 0,-1.49665 0.4458,-2.26088 1.36925,-2.32456 l 1.40111,-0.0319 c 0.85977,0 1.7514,-0.25475 2.67486,-0.7324 0.98713,-0.50949 1.46478,-1.14635 1.46478,-1.91061 0,-1.36926 -1.21005,-2.03797 -3.63014,-2.03797 -1.78323,0 -3.53462,0.35028 -5.22232,1.05083 -1.43295,-2.61115 -2.16535,-4.61729 -2.16535,-6.08209 0,-1.46478 1.01899,-2.57931 3.05697,-3.31171 2.03798,-0.76424 4.61729,-1.11453 7.7061,-1.11453 3.08881,0 5.50891,0.63688 7.26029,1.91061 1.71955,1.30558 2.61116,3.05697 2.61116,5.28601 0,3.88489 -1.6877,6.87818 -5.03125,8.97984 4.0441,1.62401 6.08209,4.42623 6.08209,8.34297 0,3.05696 -1.08268,5.54075 -3.24802,7.41951 -2.13352,1.87876 -5.22233,2.80221 -9.26644,2.80221 -2.54748,0 -4.8402,-0.35027 -6.94186,-1.05083 -2.10166,-0.73239 -3.15249,-1.59217 -3.15249,-2.61115 z"
           style="fill:#ffffff;fill-opacity:1;fill-rule:nonzero;stroke:#000000;stroke-width:1.50442;stroke-linecap:round;stroke-linejoin:bevel;stroke-miterlimit:4;stroke-dasharray:none;stroke-opacity:1"
           inkscape:connector-curvature="0" />
        <path
           style="opacity:1;fill:#000000;fill-opacity:1;stroke:#000000;stroke-width:1.61439;stroke-linecap:round;stroke-linejoin:round;stroke-miterlimit:4;stroke-dasharray:none;stroke-opacity:1;paint-order:normal"
           d="m 86.126938,252.29387 -21.436284,29.44017 h 12.268611 v 13.03197 c 0,0.59555 0.479803,1.07452 1.075361,1.07452 h 16.766109 c 0.595553,0 1.075356,-0.47897 1.075356,-1.07452 v -13.03197 h 11.687139 z"
           id="rect6941-0"
           inkscape:connector-curvature="0"
           sodipodi:nodetypes="cccssssccc" />
        <g
           transform="matrix(1.502084,0,0,1.502084,53.570982,330.94955)"
           aria-label="5"
           style="font-style:normal;font-variant:normal;font-weight:normal;font-stretch:normal;font-size:42.1974px;line-height:1.25;font-family:'MS UI Gothic';-inkscape-font-specification:'MS UI Gothic';font-variant-ligatures:normal;font-variant-caps:normal;font-variant-numeric:normal;font-feature-settings:normal;text-align:start;letter-spacing:0px;word-spacing:0px;writing-mode:lr-tb;text-anchor:start;fill:#f4f4f4;fill-opacity:1;stroke:#000000;stroke-width:1.26394;stroke-miterlimit:4;stroke-dasharray:none;stroke-opacity:1"
           id="text5349-1-0">
          <path
             inkscape:connector-curvature="0"
             d="m 29.236893,-52.968952 q 0.748302,0 0.748302,3.268894 0,1.023991 -0.196922,2.441825 -0.157537,1.378449 -0.630148,1.378449 h -7.679933 l -0.03938,2.875052 h 1.299681 q 4.214117,0 6.262099,2.441825 2.087366,2.441825 2.087366,6.45902 0,4.017196 -2.835667,6.577173 -2.835668,2.520593 -7.28609,2.520593 -4.450423,0 -6.498405,-1.260296 -0.315074,-0.511996 -0.315074,-1.575371 0,-1.10276 0.315074,-3.071973 0.315074,-2.008598 0.866454,-2.008598 0.03938,0 0.236306,0.157537 2.796283,1.142144 4.253501,1.142144 1.496602,0 2.441825,-0.787685 0.984606,-0.82707 0.984606,-2.087367 0,-3.150741 -3.387047,-3.150741 l -3.387047,0.03938 q -0.393843,0.07877 -0.787685,-0.315074 -0.393843,-0.433227 -0.393843,-1.10276 v -12.327276 q 0,-1.614755 1.181528,-1.614755 z"
             style="font-style:normal;font-variant:normal;font-weight:normal;font-stretch:normal;font-size:39.3843px;font-family:'Lilita One';-inkscape-font-specification:'Lilita One';fill:#f4f4f4;fill-opacity:1;stroke:#000000;stroke-width:1.26394;stroke-opacity:1"
             id="path822-3-1" />
        </g>
        <path
           id="path860"
           d="M 24.818431,299.81515 3.3590409,329.27055 H 15.626431 v 13.01915 c 0,0.61508 0.47839,1.09347 1.09347,1.09347 h 16.74379 c 0.61508,0 1.09347,-0.47839 1.09347,-1.09347 v -13.01915 h 11.68648 z"
           style="fill:#000000;fill-opacity:1;fill-rule:nonzero;stroke:#000000;stroke-width:2.52865px;stroke-linecap:round;stroke-linejoin:round;stroke-miterlimit:4;stroke-dasharray:none;stroke-opacity:1"
           inkscape:connector-curvature="0" />
        <path
           id="path862"
           d="m 31.889131,337.29174 h -14.23829 c -1.01916,0 -1.7086,-0.9892 -2.09827,-2.93758 -0.20983,-1.04915 -0.29976,-1.85848 -0.29976,-2.39803 0,-0.53955 0.0599,-0.89926 0.23981,-1.07911 6.41472,-6.59458 9.62208,-11.09088 9.62208,-13.45894 0,-0.80932 -0.23981,-1.40883 -0.65945,-1.79852 -0.38969,-0.38968 -1.04914,-0.59951 -1.97838,-0.59951 -0.86928,0 -1.76855,0.17987 -2.69778,0.50959 -0.86929,0.32973 -1.58869,0.71941 -2.09827,1.10908 -1.1091,-1.34889 -1.88845,-2.75771 -2.30811,-4.22651 -0.14986,-0.50959 -0.20982,-0.92924 -0.20982,-1.3489 0,-0.41966 0.0599,-0.80934 0.20982,-1.19902 0.20982,-0.74937 1.28894,-1.4388 3.1774,-2.09826 1.91841,-0.65945 3.92676,-0.9892 6.02503,-0.9892 6.41472,0 9.62208,2.84767 9.62208,8.54298 0,2.51793 -0.86928,5.06584 -2.57787,7.67368 -1.70859,2.5779 -3.71694,4.79606 -5.99507,6.68451 l 8.66288,-0.32973 c 0.14987,1.49876 0.20983,2.81768 0.20983,3.92678 0,1.13906 -0.23981,2.06829 -0.68944,2.84765 -0.44963,0.77935 -1.10909,1.16904 -1.91842,1.16904 z"
           style="fill:#eeeeee;fill-opacity:1;fill-rule:nonzero;stroke:#000000;stroke-width:1.37887px;stroke-linecap:butt;stroke-linejoin:miter;stroke-miterlimit:4;stroke-dasharray:none;stroke-opacity:1"
           inkscape:connector-curvature="0" />
        <path
           id="path876"
           d="m 86.709583,300.88366 -21.459396,29.4554 h 12.267396 v 13.01915 c 0,0.61508 0.4784,1.09347 1.09347,1.09347 h 16.743795 c 0.615078,0 1.093472,-0.47839 1.093472,-1.09347 v -13.01915 h 11.68648 z"
           style="fill:#000000;fill-opacity:1;fill-rule:nonzero;stroke:#000000;stroke-width:2.52865px;stroke-linecap:round;stroke-linejoin:round;stroke-miterlimit:4;stroke-dasharray:none;stroke-opacity:1"
           inkscape:connector-curvature="0" />
        <path
           id="path878"
           d="m 99.054915,324.45737 c 0.367017,0 0.550526,1.39467 0.550526,4.184 0,2.75262 -0.183509,4.11058 -0.550526,4.11058 l -3.596765,0.0734 v 6.93662 c 0,0.36702 -0.770735,0.66063 -2.275504,0.84414 -1.504769,0.18351 -2.789328,0.29361 -3.890381,0.29361 l -2.238801,-0.1101 c -1.871785,-0.14681 -2.826033,-0.47712 -2.826033,-0.99095 v -6.82651 H 73.290337 c -0.954249,-0.95424 -1.798385,-2.16539 -2.569119,-3.67016 -0.770745,-1.54148 -1.174463,-2.64253 -1.174463,-3.30316 0,-0.69733 0.110113,-1.24786 0.330317,-1.65157 l 12.038156,-21.32368 c 0.146802,-0.29362 1.284564,-0.51383 3.376553,-0.66063 2.1287,-0.14681 4.330802,-0.22022 6.643008,-0.22022 2.312206,0 3.449958,0.11011 3.449958,0.29362 l 0.0734,22.02101 z m -13.212604,0.0734 v -11.48763 l -6.4595,11.48763 z"
           style="fill:#f4f4f4;fill-opacity:1;fill-rule:nonzero;stroke:#000000;stroke-width:1.76168px;stroke-linecap:butt;stroke-linejoin:miter;stroke-miterlimit:4;stroke-dasharray:none;stroke-opacity:1"
           inkscape:connector-curvature="0" />
        <path
           id="path892"
           d="M 23.690872,251.40242 2.2314823,280.85782 H 14.498872 v 13.01915 c 0,0.61508 0.47839,1.09347 1.09347,1.09347 h 16.74379 c 0.61508,0 1.09347,-0.47839 1.09347,-1.09347 v -13.01915 h 11.686481 z"
           style="fill:#000000;fill-opacity:1;fill-rule:nonzero;stroke:#000000;stroke-width:2.52865px;stroke-linecap:round;stroke-linejoin:round;stroke-miterlimit:4;stroke-dasharray:none;stroke-opacity:1"
           inkscape:connector-curvature="0" />
        <path
           id="path894"
           d="m 28.571462,287.36616 c 0,0.41415 -1.21944,0.62123 -3.68133,0.62123 -2.41587,0 -3.6353,-0.20708 -3.6353,-0.62123 V 269.6268 l -3.8884,0.046 c -0.71325,0 -1.08139,-1.15042 -1.08139,-3.47424 0,-0.78229 0.069,-1.54156 0.23009,-2.30084 0.16105,-0.73626 0.43715,-1.10439 0.8283,-1.10439 h 9.84754 c 0.41414,0 0.73626,0.092 0.98934,0.2761 0.25309,0.18407 0.39115,0.39114 0.39115,0.64423 z"
           style="fill:#ffffff;fill-opacity:1;fill-rule:nonzero;stroke:#000000;stroke-width:1.15041px;stroke-linecap:butt;stroke-linejoin:miter;stroke-miterlimit:4;stroke-dasharray:none;stroke-opacity:1"
           inkscape:connector-curvature="0" />
      </g>
    </g>
  </g>
</svg>
