<?xml version="1.0" encoding="UTF-8" standalone="no"?>
<!-- Created with Inkscape (http://www.inkscape.org/) -->

<svg
   xmlns:dc="http://purl.org/dc/elements/1.1/"
   xmlns:cc="http://creativecommons.org/ns#"
   xmlns:rdf="http://www.w3.org/1999/02/22-rdf-syntax-ns#"
   xmlns:svg="http://www.w3.org/2000/svg"
   xmlns="http://www.w3.org/2000/svg"
   xmlns:sodipodi="http://sodipodi.sourceforge.net/DTD/sodipodi-0.dtd"
   xmlns:inkscape="http://www.inkscape.org/namespaces/inkscape"
   width="110"
   height="100"
   viewBox="0 0 29.104167 26.458333"
   version="1.1"
   id="svg8"
   inkscape:version="0.92.4 (5da689c313, 2019-01-14)"
   sodipodi:docname="3H.svg">
  <defs
     id="defs2" />
  <sodipodi:namedview
     id="base"
     pagecolor="#ffffff"
     bordercolor="#666666"
     borderopacity="1.0"
     inkscape:pageopacity="0.0"
     inkscape:pageshadow="2"
     inkscape:zoom="4"
     inkscape:cx="20.832493"
     inkscape:cy="26.716243"
     inkscape:document-units="mm"
     inkscape:current-layer="flowRoot817-7"
     showgrid="false"
     units="px"
     inkscape:pagecheckerboard="true"
     inkscape:snap-text-baseline="true"
     inkscape:window-width="1920"
     inkscape:window-height="1129"
     inkscape:window-x="1913"
     inkscape:window-y="1072"
     inkscape:window-maximized="1" />
  <metadata
     id="metadata5">
    <rdf:RDF>
      <cc:Work
         rdf:about="">
        <dc:format>image/svg+xml</dc:format>
        <dc:type
           rdf:resource="http://purl.org/dc/dcmitype/StillImage" />
        <dc:title />
      </cc:Work>
    </rdf:RDF>
  </metadata>
  <g
     inkscape:label="Layer 1"
     inkscape:groupmode="layer"
     id="layer1"
     transform="translate(0,-270.54168)">
    <g
       transform="matrix(0.47925172,0,0,0.47925172,2.8615729,151.81179)"
       id="layer1-3"
       inkscape:label="Layer 1">
      <g
         style="font-style:normal;font-variant:normal;font-weight:bold;font-stretch:normal;font-size:39.99874115px;line-height:1.25;font-family:Calibri;-inkscape-font-specification:'Calibri, Bold';font-variant-ligatures:normal;font-variant-caps:normal;font-variant-numeric:normal;font-feature-settings:normal;text-align:center;letter-spacing:0px;word-spacing:0px;writing-mode:lr-tb;text-anchor:middle;fill:#000000;fill-opacity:1;stroke:#ffffff;stroke-width:2.59180784;stroke-miterlimit:4;stroke-dasharray:none;stroke-opacity:1;paint-order:markers stroke fill"
         inkscape:label="Layer 1"
         id="layer1-8"
         transform="matrix(2.0865862,0,0,2.0865862,125.54456,-211.28553)" />
      <g
         transform="matrix(1.292492,0,0,1.292492,-8.3621147,-77.407508)"
         id="layer1-9"
         inkscape:label="Layer 1"
         style="stroke:#000000;stroke-width:1.5;stroke-miterlimit:4;stroke-dasharray:none;stroke-opacity:1">
        <path
           d="M 48.635311,273.10788 36.857002,293.50851 H 13.300385 L 1.5220757,273.10788 13.300385,252.70725 l 23.556617,0 z"
           inkscape:randomized="0"
           inkscape:rounded="0"
           inkscape:flatsided="true"
           sodipodi:arg2="0.52359878"
           sodipodi:arg1="0"
           sodipodi:r2="20.400631"
           sodipodi:r1="23.556618"
           sodipodi:cy="273.10788"
           sodipodi:cx="25.078693"
           sodipodi:sides="6"
           id="path815-0"
           style="fill:#ffffff;fill-opacity:1;stroke:#000000;stroke-width:1.5;stroke-linecap:round;stroke-miterlimit:4;stroke-dasharray:none;stroke-opacity:1"
           sodipodi:type="star"
           transform="matrix(0.95203737,0,0,1,1.583173,0)" />
        <g
           id="flowRoot817-7"
           style="font-style:normal;font-variant:normal;font-weight:bold;font-stretch:normal;font-size:39.99874115px;line-height:1.25;font-family:Calibri;-inkscape-font-specification:'Calibri, Bold';font-variant-ligatures:normal;font-variant-caps:normal;font-variant-numeric:normal;font-feature-settings:normal;text-align:start;letter-spacing:0px;word-spacing:0px;writing-mode:lr-tb;text-anchor:start;fill:#000000;fill-opacity:1;stroke:#000000;stroke-width:1.19812191;stroke-miterlimit:4;stroke-dasharray:none;stroke-opacity:1"
           transform="matrix(1.2519595,0,0,1.2519595,-1.4061474,321.92483)"
           aria-label="1">
          <g
             aria-label="3"
             style="font-style:normal;font-variant:normal;font-weight:normal;font-stretch:normal;font-size:42.19742966px;line-height:1.25;font-family:'MS UI Gothic';-inkscape-font-specification:'MS UI Gothic';letter-spacing:0px;word-spacing:0px;fill:#000000;fill-opacity:1;stroke:none;stroke-width:1.26394165"
             id="text5349">
            <path
               d="m 12.242581,-27.999325 q 0,-1.10276 0.55138,-2.481209 0.55138,-1.417834 1.063375,-2.244904 0.511996,-0.866453 0.590764,-0.866453 2.284288,1.378449 4.804881,1.378449 1.575371,0 2.520594,-0.630148 0.984606,-0.630149 0.984606,-1.732908 0,-1.142144 -0.905838,-1.457218 -0.866454,-0.315074 -2.796283,-0.433227 h -1.417834 q -0.472611,0 -0.905838,-1.142144 -0.393843,-1.181528 -0.393843,-2.284288 0,-1.85106 1.10276,-1.890445 l 1.142144,-0.03938 q 1.063375,0 2.205519,-0.590764 1.181528,-0.630148 1.181528,-1.575371 0,-1.654139 -2.95382,-1.654139 -2.205519,0 -4.253501,0.866454 -1.772293,-3.190126 -1.772293,-4.962418 0,-1.811676 2.481209,-2.717515 2.520594,-0.905838 6.301484,-0.905838 3.78089,0 5.90764,1.575371 2.126751,1.575371 2.126751,4.292885 0,4.765497 -4.095964,7.325474 4.962418,2.008598 4.962418,6.813479 0,3.741506 -2.638746,6.065178 -2.638747,2.284287 -7.56178,2.284287 -3.111358,0 -5.671335,-0.866454 -2.559978,-0.905838 -2.559978,-2.12675 z"
               style="font-style:normal;font-variant:normal;font-weight:normal;font-stretch:normal;font-size:39.38426971px;font-family:'Lilita One';-inkscape-font-specification:'Lilita One';stroke-width:1.26394165"
               id="path822" />
          </g>
        </g>
      </g>
    </g>
  </g>
</svg>
