<?xml version="1.0" encoding="UTF-8" standalone="no"?>
<!-- Created with Inkscape (http://www.inkscape.org/) -->

<svg
   xmlns:dc="http://purl.org/dc/elements/1.1/"
   xmlns:cc="http://creativecommons.org/ns#"
   xmlns:rdf="http://www.w3.org/1999/02/22-rdf-syntax-ns#"
   xmlns:svg="http://www.w3.org/2000/svg"
   xmlns="http://www.w3.org/2000/svg"
   xmlns:sodipodi="http://sodipodi.sourceforge.net/DTD/sodipodi-0.dtd"
   xmlns:inkscape="http://www.inkscape.org/namespaces/inkscape"
   width="110"
   height="100"
   viewBox="0 0 29.104167 26.458333"
   version="1.1"
   id="svg8"
   inkscape:version="0.92.4 (5da689c313, 2019-01-14)"
   sodipodi:docname="4R.svg">
  <defs
     id="defs2" />
  <sodipodi:namedview
     id="base"
     pagecolor="#ffffff"
     bordercolor="#666666"
     borderopacity="1.0"
     inkscape:pageopacity="0.0"
     inkscape:pageshadow="2"
     inkscape:zoom="7.0171865"
     inkscape:cx="45.12798"
     inkscape:cy="42.545306"
     inkscape:document-units="mm"
     inkscape:current-layer="layer1-3"
     showgrid="false"
     units="px"
     inkscape:pagecheckerboard="true"
     inkscape:snap-text-baseline="true"
     inkscape:window-width="1920"
     inkscape:window-height="1129"
     inkscape:window-x="1913"
     inkscape:window-y="1072"
     inkscape:window-maximized="1" />
  <metadata
     id="metadata5">
    <rdf:RDF>
      <cc:Work
         rdf:about="">
        <dc:format>image/svg+xml</dc:format>
        <dc:type
           rdf:resource="http://purl.org/dc/dcmitype/StillImage" />
        <dc:title />
      </cc:Work>
    </rdf:RDF>
  </metadata>
  <g
     inkscape:label="Layer 1"
     inkscape:groupmode="layer"
     id="layer1"
     transform="translate(0,-270.54168)">
    <g
       transform="matrix(0.47925172,0,0,0.47925172,2.8615729,151.81179)"
       id="layer1-3"
       inkscape:label="Layer 1">
      <g
         id="g1403"
         transform="translate(0.2855863)">
        <path
           sodipodi:type="star"
           style="fill:#ffffff;fill-opacity:1;stroke:#000000;stroke-width:6.30298471;stroke-linecap:round;stroke-linejoin:round;stroke-miterlimit:4;stroke-dasharray:none;stroke-opacity:1"
           id="path815-1-5-9"
           sodipodi:sides="6"
           sodipodi:cx="24"
           sodipodi:cy="273"
           sodipodi:r1="23.556618"
           sodipodi:r2="20.400631"
           sodipodi:arg1="0"
           sodipodi:arg2="0.52359878"
           inkscape:flatsided="true"
           inkscape:rounded="0"
           inkscape:randomized="0"
           d="M 47.556618,273 35.778309,293.40063 H 12.221691 L 0.44338226,273 12.221691,252.59937 l 23.556618,0 z"
           transform="matrix(0.39475502,0.22573091,-0.22808095,0.39068765,58.503342,178.89288)" />
        <path
           sodipodi:type="star"
           style="fill:#ffffff;fill-opacity:1;stroke:#000000;stroke-width:6.30298471;stroke-linecap:round;stroke-linejoin:round;stroke-miterlimit:4;stroke-dasharray:none;stroke-opacity:1"
           id="path815-1-3-7-2"
           sodipodi:sides="6"
           sodipodi:cx="24"
           sodipodi:cy="273"
           sodipodi:r1="23.556618"
           sodipodi:r2="20.400631"
           sodipodi:arg1="0"
           sodipodi:arg2="0.52359878"
           inkscape:flatsided="true"
           inkscape:rounded="0"
           inkscape:randomized="0"
           d="M 47.556618,273 35.778309,293.40063 H 12.221691 L 0.44338226,273 12.221691,252.59937 l 23.556618,0 z"
           transform="matrix(0.39475502,0.22573091,-0.22808095,0.39068765,77.104982,178.89877)" />
        <path
           sodipodi:type="star"
           style="fill:#ffffff;fill-opacity:1;stroke:#000000;stroke-width:6.30298471;stroke-linecap:round;stroke-linejoin:round;stroke-miterlimit:4;stroke-dasharray:none;stroke-opacity:1"
           id="path815-1-0-5-4"
           sodipodi:sides="6"
           sodipodi:cx="24"
           sodipodi:cy="273"
           sodipodi:r1="23.556618"
           sodipodi:r2="20.400631"
           sodipodi:arg1="0"
           sodipodi:arg2="0.52359878"
           inkscape:flatsided="true"
           inkscape:rounded="0"
           inkscape:randomized="0"
           d="M 47.556618,273 35.778309,293.40063 H 12.221691 L 0.44338226,273 12.221691,252.59937 l 23.556618,0 z"
           transform="matrix(0.39475502,0.22573091,-0.22808095,0.39068765,95.706622,178.90469)" />
      </g>
      <g
         style="font-style:normal;font-variant:normal;font-weight:bold;font-stretch:normal;font-size:39.99874115px;line-height:1.25;font-family:Calibri;-inkscape-font-specification:'Calibri, Bold';font-variant-ligatures:normal;font-variant-caps:normal;font-variant-numeric:normal;font-feature-settings:normal;text-align:center;letter-spacing:0px;word-spacing:0px;writing-mode:lr-tb;text-anchor:middle;fill:#000000;fill-opacity:1;stroke:#ffffff;stroke-width:2.59180784;stroke-miterlimit:4;stroke-dasharray:none;stroke-opacity:1;paint-order:markers stroke fill"
         inkscape:label="Layer 1"
         id="layer1-8"
         transform="matrix(2.0865862,0,0,2.0865862,125.54456,-211.28553)" />
      <text
         xml:space="preserve"
         style="font-style:normal;font-weight:normal;font-size:22.08303642px;line-height:1.25;font-family:sans-serif;letter-spacing:0px;word-spacing:0px;fill:#000000;fill-opacity:1;stroke:none;stroke-width:0.55207592"
         x="66.390457"
         y="261.14771"
         id="text1394"><tspan
           sodipodi:role="line"
           id="tspan1392"
           x="66.390457"
           y="281.29474"
           style="stroke-width:0.55207592" /></text>
      <g
         aria-label="4R"
         transform="scale(0.98596402,1.0142358)"
         style="font-style:normal;font-variant:normal;font-weight:normal;font-stretch:normal;font-size:49.30570984px;line-height:1.25;font-family:'Lilita One';-inkscape-font-specification:'Lilita One';letter-spacing:0px;word-spacing:0px;fill:#000000;fill-opacity:1;stroke:#ffffff;stroke-width:5.7583003;stroke-linejoin:round;stroke-miterlimit:4;stroke-dasharray:none;stroke-opacity:1;paint-order:markers stroke fill"
         id="text1398">
        <path
           d="m 22.763141,268.73129 q 0.493057,0 0.493057,3.74723 0,3.69793 -0.493057,3.69793 l -3.254177,0.0493 v 6.21252 q 0,0.54237 -2.021534,0.7889 -2.021534,0.24652 -3.500705,0.24652 l -2.021534,-0.0986 q -2.5145916,-0.19722 -2.5145916,-0.8875 v -6.11391 h -9.8118363 q -1.2819485,-1.28195 -2.3173684,-3.30348 -1.0354199,-2.07084 -1.0354199,-2.95834 0,-0.93681 0.2958343,-1.47917 L 7.3797595,249.50206 q 0.1972229,-0.39445 3.0076485,-0.59167 2.859731,-0.19722 5.965991,-0.19722 3.106259,0 3.106259,0.24653 l 0.04931,19.77159 z m -11.882676,0.0493 V 258.4757 l -5.7687681,10.30489 z"
           style="stroke:#ffffff;stroke-width:5.7583003;stroke-linejoin:round;stroke-miterlimit:4;stroke-dasharray:none;stroke-opacity:1;paint-order:markers stroke fill"
           id="path825" />
        <path
           d="m 37.143459,282.78341 q 0,0.7889 -4.684043,0.7889 -4.733348,0 -4.733348,-0.73959 V 250.6854 q 0,-1.7257 1.824311,-1.7257 h 9.417391 q 12.967402,0 12.967402,10.10767 0,3.05695 -1.183337,5.57154 -1.183337,2.46529 -3.352789,3.94446 l 6.21252,10.3542 q -0.394446,1.18334 -2.563897,2.71181 -2.958343,2.12015 -4.881265,2.12015 -1.922923,0 -2.859731,-1.38056 l -4.634737,-10.79795 h -1.528477 z m 0,-25.0966 v 7.39585 h 0.246528 q 4.684043,0 4.684043,-3.89515 0,-1.775 -0.936809,-2.6132 -0.887502,-0.8875 -2.958342,-0.8875 z"
           style="stroke:#ffffff;stroke-width:5.7583003;stroke-linejoin:round;stroke-miterlimit:4;stroke-dasharray:none;stroke-opacity:1;paint-order:markers stroke fill"
           id="path827" />
      </g>
    </g>
  </g>
</svg>
