<?xml version="1.0" encoding="UTF-8" standalone="no"?>
<!-- Created with Inkscape (http://www.inkscape.org/) -->

<svg
   xmlns:dc="http://purl.org/dc/elements/1.1/"
   xmlns:cc="http://creativecommons.org/ns#"
   xmlns:rdf="http://www.w3.org/1999/02/22-rdf-syntax-ns#"
   xmlns:svg="http://www.w3.org/2000/svg"
   xmlns="http://www.w3.org/2000/svg"
   xmlns:sodipodi="http://sodipodi.sourceforge.net/DTD/sodipodi-0.dtd"
   xmlns:inkscape="http://www.inkscape.org/namespaces/inkscape"
   width="110"
   height="100"
   viewBox="0 0 29.104167 26.458333"
   version="1.1"
   id="svg8"
   inkscape:version="0.92.4 (5da689c313, 2019-01-14)"
   sodipodi:docname="5R.svg">
  <defs
     id="defs2" />
  <sodipodi:namedview
     id="base"
     pagecolor="#ffffff"
     bordercolor="#666666"
     borderopacity="1.0"
     inkscape:pageopacity="0.0"
     inkscape:pageshadow="2"
     inkscape:zoom="7.0171865"
     inkscape:cx="45.12798"
     inkscape:cy="42.545306"
     inkscape:document-units="mm"
     inkscape:current-layer="layer1-3"
     showgrid="false"
     units="px"
     inkscape:pagecheckerboard="true"
     inkscape:snap-text-baseline="true"
     inkscape:window-width="1920"
     inkscape:window-height="1129"
     inkscape:window-x="1913"
     inkscape:window-y="1072"
     inkscape:window-maximized="1" />
  <metadata
     id="metadata5">
    <rdf:RDF>
      <cc:Work
         rdf:about="">
        <dc:format>image/svg+xml</dc:format>
        <dc:type
           rdf:resource="http://purl.org/dc/dcmitype/StillImage" />
        <dc:title />
      </cc:Work>
    </rdf:RDF>
  </metadata>
  <g
     inkscape:label="Layer 1"
     inkscape:groupmode="layer"
     id="layer1"
     transform="translate(0,-270.54168)">
    <g
       transform="matrix(0.47925172,0,0,0.47925172,2.8615729,151.81179)"
       id="layer1-3"
       inkscape:label="Layer 1">
      <g
         id="g1403"
         transform="translate(0.21268768)">
        <path
           sodipodi:type="star"
           style="fill:#ffffff;fill-opacity:1;stroke:#000000;stroke-width:6.30298471;stroke-linecap:round;stroke-linejoin:round;stroke-miterlimit:4;stroke-dasharray:none;stroke-opacity:1"
           id="path815-1-5-9"
           sodipodi:sides="6"
           sodipodi:cx="24"
           sodipodi:cy="273"
           sodipodi:r1="23.556618"
           sodipodi:r2="20.400631"
           sodipodi:arg1="0"
           sodipodi:arg2="0.52359878"
           inkscape:flatsided="true"
           inkscape:rounded="0"
           inkscape:randomized="0"
           d="M 47.556618,273 35.778309,293.40063 H 12.221691 L 0.44338226,273 12.221691,252.59937 l 23.556618,0 z"
           transform="matrix(0.39475502,0.22573091,-0.22808095,0.39068765,58.503342,178.89288)" />
        <path
           sodipodi:type="star"
           style="fill:#ffffff;fill-opacity:1;stroke:#000000;stroke-width:6.30298471;stroke-linecap:round;stroke-linejoin:round;stroke-miterlimit:4;stroke-dasharray:none;stroke-opacity:1"
           id="path815-1-3-7-2"
           sodipodi:sides="6"
           sodipodi:cx="24"
           sodipodi:cy="273"
           sodipodi:r1="23.556618"
           sodipodi:r2="20.400631"
           sodipodi:arg1="0"
           sodipodi:arg2="0.52359878"
           inkscape:flatsided="true"
           inkscape:rounded="0"
           inkscape:randomized="0"
           d="M 47.556618,273 35.778309,293.40063 H 12.221691 L 0.44338226,273 12.221691,252.59937 l 23.556618,0 z"
           transform="matrix(0.39475502,0.22573091,-0.22808095,0.39068765,77.104982,178.89877)" />
        <path
           sodipodi:type="star"
           style="fill:#ffffff;fill-opacity:1;stroke:#000000;stroke-width:6.30298471;stroke-linecap:round;stroke-linejoin:round;stroke-miterlimit:4;stroke-dasharray:none;stroke-opacity:1"
           id="path815-1-0-5-4"
           sodipodi:sides="6"
           sodipodi:cx="24"
           sodipodi:cy="273"
           sodipodi:r1="23.556618"
           sodipodi:r2="20.400631"
           sodipodi:arg1="0"
           sodipodi:arg2="0.52359878"
           inkscape:flatsided="true"
           inkscape:rounded="0"
           inkscape:randomized="0"
           d="M 47.556618,273 35.778309,293.40063 H 12.221691 L 0.44338226,273 12.221691,252.59937 l 23.556618,0 z"
           transform="matrix(0.39475502,0.22573091,-0.22808095,0.39068765,95.706622,178.90469)" />
      </g>
      <g
         style="font-style:normal;font-variant:normal;font-weight:bold;font-stretch:normal;font-size:39.99874115px;line-height:1.25;font-family:Calibri;-inkscape-font-specification:'Calibri, Bold';font-variant-ligatures:normal;font-variant-caps:normal;font-variant-numeric:normal;font-feature-settings:normal;text-align:center;letter-spacing:0px;word-spacing:0px;writing-mode:lr-tb;text-anchor:middle;fill:#000000;fill-opacity:1;stroke:#ffffff;stroke-width:2.59180784;stroke-miterlimit:4;stroke-dasharray:none;stroke-opacity:1;paint-order:markers stroke fill"
         inkscape:label="Layer 1"
         id="layer1-8"
         transform="matrix(2.0865862,0,0,2.0865862,125.54456,-211.28553)" />
      <text
         xml:space="preserve"
         style="font-style:normal;font-weight:normal;font-size:22.08303642px;line-height:1.25;font-family:sans-serif;letter-spacing:0px;word-spacing:0px;fill:#000000;fill-opacity:1;stroke:none;stroke-width:0.55207592"
         x="66.390457"
         y="261.14771"
         id="text1394"><tspan
           sodipodi:role="line"
           id="tspan1392"
           x="66.390457"
           y="281.29474"
           style="stroke-width:0.55207592" /></text>
      <g
         aria-label="5R"
         transform="scale(0.98596402,1.0142358)"
         style="font-style:normal;font-variant:normal;font-weight:normal;font-stretch:normal;font-size:49.30570984px;line-height:1.25;font-family:'Lilita One';-inkscape-font-specification:'Lilita One';letter-spacing:0px;word-spacing:0px;fill:#000000;fill-opacity:1;stroke:#ffffff;stroke-width:5.7583003;stroke-linejoin:round;stroke-miterlimit:4;stroke-dasharray:none;stroke-opacity:1;paint-order:markers stroke fill"
         id="text1398">
        <path
           d="m 17.764025,248.9597 q 0.936809,0 0.936809,4.09237 0,1.28195 -0.246529,3.05695 -0.197223,1.7257 -0.788891,1.7257 H 8.0508004 l -0.049306,3.59932 h 1.6270884 q 5.2757109,0 7.8396079,3.05696 2.613203,3.05695 2.613203,8.08613 0,5.02918 -3.550012,8.23406 -3.550011,3.15556 -9.1215558,3.15556 -5.5715452,0 -8.13544216,-1.57778 -0.39444564,-0.64098 -0.39444564,-1.97223 0,-1.38056 0.39444564,-3.84585 0.39444568,-2.51459 1.08472562,-2.51459 0.0493057,0 0.29583425,0.19723 3.50070539,1.42986 5.32501669,1.42986 1.873617,0 3.056954,-0.98611 1.2326424,-1.03542 1.2326424,-2.61321 0,-3.94445 -4.2402907,-3.94445 l -4.2402911,0.0493 q -0.4930571,0.0986 -0.98611416,-0.39444 -0.49305709,-0.54236 -0.49305709,-1.38056 v -15.43269 q 0,-2.02153 1.47917125,-2.02153 z"
           style="stroke:#ffffff;stroke-width:5.7583003;stroke-linejoin:round;stroke-miterlimit:4;stroke-dasharray:none;stroke-opacity:1;paint-order:markers stroke fill"
           id="path825" />
        <path
           d="m 34.401622,282.78341 q 0,0.7889 -4.684043,0.7889 -4.733348,0 -4.733348,-0.73959 V 250.6854 q 0,-1.7257 1.824311,-1.7257 h 9.417391 q 12.967401,0 12.967401,10.10767 0,3.05695 -1.183337,5.57154 -1.183337,2.46529 -3.352788,3.94446 l 6.21252,10.3542 q -0.394446,1.18334 -2.563897,2.71181 -2.958343,2.12015 -4.881266,2.12015 -1.922922,0 -2.859731,-1.38056 l -4.634736,-10.79795 h -1.528477 z m 0,-25.0966 v 7.39585 h 0.246528 q 4.684043,0 4.684043,-3.89515 0,-1.775 -0.936809,-2.6132 -0.887503,-0.8875 -2.958343,-0.8875 z"
           style="stroke:#ffffff;stroke-width:5.7583003;stroke-linejoin:round;stroke-miterlimit:4;stroke-dasharray:none;stroke-opacity:1;paint-order:markers stroke fill"
           id="path827" />
      </g>
    </g>
  </g>
</svg>
