<?xml version="1.0" encoding="UTF-8" standalone="no"?>
<!-- Created with Inkscape (http://www.inkscape.org/) -->

<svg
   xmlns:dc="http://purl.org/dc/elements/1.1/"
   xmlns:cc="http://creativecommons.org/ns#"
   xmlns:rdf="http://www.w3.org/1999/02/22-rdf-syntax-ns#"
   xmlns:svg="http://www.w3.org/2000/svg"
   xmlns="http://www.w3.org/2000/svg"
   xmlns:sodipodi="http://sodipodi.sourceforge.net/DTD/sodipodi-0.dtd"
   xmlns:inkscape="http://www.inkscape.org/namespaces/inkscape"
   width="68mm"
   height="48mm"
   viewBox="0 0 68 48"
   version="1.1"
   id="svg8"
   inkscape:version="0.92.3 (2405546, 2018-03-11)"
   sodipodi:docname="Hexagon_1R.svg">
  <defs
     id="defs2" />
  <sodipodi:namedview
     id="base"
     pagecolor="#ffffff"
     bordercolor="#666666"
     borderopacity="1.0"
     inkscape:pageopacity="0.0"
     inkscape:pageshadow="2"
     inkscape:zoom="1.979899"
     inkscape:cx="-9.4116179"
     inkscape:cy="53.304783"
     inkscape:document-units="mm"
     inkscape:current-layer="layer1"
     showgrid="false"
     inkscape:pagecheckerboard="true"
     inkscape:window-width="1920"
     inkscape:window-height="1137"
     inkscape:window-x="1352"
     inkscape:window-y="-8"
     inkscape:window-maximized="1" />
  <metadata
     id="metadata5">
    <rdf:RDF>
      <cc:Work
         rdf:about="">
        <dc:format>image/svg+xml</dc:format>
        <dc:type
           rdf:resource="http://purl.org/dc/dcmitype/StillImage" />
        <dc:title />
      </cc:Work>
    </rdf:RDF>
  </metadata>
  <g
     inkscape:label="Layer 1"
     inkscape:groupmode="layer"
     id="layer1"
     transform="translate(0,-249)">
    <g
       id="g864"
       style="fill:#ffffff">
      <path
         transform="rotate(30.018398,22.535342,267.53733)"
         d="M 47.556618,273 35.778309,293.40063 H 12.221691 L 0.44338226,273 12.221691,252.59937 l 23.556618,0 z"
         inkscape:randomized="0"
         inkscape:rounded="0"
         inkscape:flatsided="true"
         sodipodi:arg2="0.52359878"
         sodipodi:arg1="0"
         sodipodi:r2="20.400631"
         sodipodi:r1="23.556618"
         sodipodi:cy="273"
         sodipodi:cx="24"
         sodipodi:sides="6"
         id="path815"
         style="fill:#ffffff;fill-opacity:1;stroke:none;stroke-width:0.95457381;stroke-linecap:round;stroke-miterlimit:4;stroke-dasharray:none;stroke-opacity:1"
         sodipodi:type="star" />
      <path
         transform="rotate(30.018398,35.494809,315.96935)"
         d="M 47.556618,273 35.778309,293.40063 H 12.221691 L 0.44338226,273 12.221691,252.59937 l 23.556618,0 z"
         inkscape:randomized="0"
         inkscape:rounded="0"
         inkscape:flatsided="true"
         sodipodi:arg2="0.52359878"
         sodipodi:arg1="0"
         sodipodi:r2="20.400631"
         sodipodi:r1="23.556618"
         sodipodi:cy="273"
         sodipodi:cx="24"
         sodipodi:sides="6"
         id="path815-1"
         style="fill:#ffffff;fill-opacity:1;stroke:none;stroke-width:0.95457381;stroke-linecap:round;stroke-miterlimit:4;stroke-dasharray:none;stroke-opacity:1"
         sodipodi:type="star" />
    </g>
    <g
       aria-label="1R"
       transform="matrix(1.2519595,0,0,1.2519595,-68.461355,321.95934)"
       style="font-style:normal;font-variant:normal;font-weight:bold;font-stretch:normal;font-size:39.99874115px;line-height:1.25;font-family:Calibri;-inkscape-font-specification:'Calibri, Bold';font-variant-ligatures:normal;font-variant-caps:normal;font-variant-numeric:normal;font-feature-settings:normal;text-align:center;letter-spacing:0px;word-spacing:0px;writing-mode:lr-tb;text-anchor:middle;fill:#000000;fill-opacity:1;stroke:none"
       id="flowRoot817">
      <path
         d="m 77.924898,-28.393618 q 0,0.546858 -0.05859,0.93747 -0.05859,0.371082 -0.175776,0.60545 -0.09765,0.214837 -0.234367,0.31249 -0.136715,0.09765 -0.31249,0.09765 H 63.198799 q -0.156245,0 -0.292959,-0.09765 -0.136715,-0.09765 -0.253899,-0.31249 -0.09765,-0.234368 -0.156245,-0.60545 -0.05859,-0.390612 -0.05859,-0.93747 0,-0.566389 0.03906,-0.937471 0.05859,-0.390612 0.156245,-0.62498 0.117183,-0.234368 0.253898,-0.332021 0.136714,-0.117184 0.31249,-0.117184 h 4.706883 v -16.444795 l -4.062372,2.246024 q -0.449205,0.214837 -0.742164,0.273428 -0.273429,0.03906 -0.449205,-0.117183 -0.156245,-0.175776 -0.214837,-0.585919 -0.05859,-0.410144 -0.05859,-1.152308 0,-0.468735 0.01953,-0.761695 0.01953,-0.31249 0.09765,-0.527327 0.07812,-0.214837 0.214837,-0.351551 0.136715,-0.136715 0.371082,-0.29296 l 5.429517,-3.515514 q 0.09765,-0.07812 0.234368,-0.117184 0.156245,-0.05859 0.390612,-0.07812 0.234368,-0.03906 0.60545,-0.03906 0.390613,-0.01953 0.996062,-0.01953 0.742164,0 1.191369,0.03906 0.468735,0.01953 0.703103,0.09765 0.234368,0.05859 0.31249,0.175776 0.07812,0.117184 0.07812,0.292959 v 20.878249 h 4.120964 q 0.175775,0 0.31249,0.117184 0.156245,0.09765 0.253898,0.332021 0.117184,0.234368 0.156245,0.62498 0.05859,0.371082 0.05859,0.937471 z"
         style="font-style:normal;font-variant:normal;font-weight:bold;font-stretch:normal;font-size:39.99874115px;font-family:Calibri;-inkscape-font-specification:'Calibri, Bold';font-variant-ligatures:normal;font-variant-caps:normal;font-variant-numeric:normal;font-feature-settings:normal;text-align:center;writing-mode:lr-tb;text-anchor:middle;fill:#000000"
         id="path827" />
      <path
         d="m 101.30307,-27.104596 q 0,0.214837 -0.0781,0.371082 -0.0781,0.136714 -0.37109,0.234367 -0.29296,0.09765 -0.859344,0.136715 -0.566388,0.03906 -1.54292,0.03906 -0.820287,0 -1.308552,-0.03906 -0.488266,-0.03906 -0.781226,-0.136715 -0.273429,-0.117183 -0.390613,-0.273428 -0.117183,-0.175776 -0.195306,-0.410144 l -2.265554,-5.644353 q -0.410143,-0.957002 -0.800756,-1.699166 -0.390612,-0.742164 -0.878878,-1.23043 -0.468735,-0.507796 -1.093716,-0.761694 -0.62498,-0.253899 -1.445267,-0.253899 h -1.601512 v 9.628604 q 0,0.195306 -0.136714,0.351551 -0.117184,0.156245 -0.410144,0.253898 -0.292959,0.09765 -0.781225,0.156245 -0.488266,0.05859 -1.249961,0.05859 -0.742164,0 -1.24996,-0.05859 -0.488266,-0.05859 -0.781226,-0.156245 -0.292959,-0.09765 -0.410143,-0.253898 -0.117184,-0.156245 -0.117184,-0.351551 v -22.948497 q 0,-0.859348 0.429674,-1.23043 0.449205,-0.390613 1.093716,-0.390613 h 6.542762 q 0.996063,0 1.640574,0.03906 0.644511,0.03906 1.171838,0.09765 1.523389,0.214837 2.734289,0.742164 1.23043,0.527327 2.070247,1.386675 0.859348,0.839817 1.308553,2.011655 0.449204,1.152308 0.449204,2.656167 0,1.269491 -0.33202,2.324145 -0.312491,1.035124 -0.937471,1.855411 -0.62498,0.820286 -1.54292,1.425736 -0.91794,0.60545 -2.089778,0.976532 0.566388,0.273429 1.054654,0.664042 0.507797,0.390612 0.937471,0.957001 0.449204,0.546857 0.839817,1.269491 0.390613,0.703103 0.761695,1.601512 l 2.128836,4.980312 q 0.29296,0.742164 0.39062,1.093716 0.0977,0.33202 0.0977,0.527327 z m -6.620886,-17.147898 q 0,-1.249961 -0.566389,-2.109309 -0.566388,-0.859348 -1.85541,-1.210899 -0.390613,-0.09765 -0.898409,-0.156245 -0.488266,-0.05859 -1.367145,-0.05859 h -2.304615 v 7.167743 h 2.617105 q 1.093716,0 1.914002,-0.253898 0.820287,-0.273429 1.367145,-0.742164 0.546858,-0.488266 0.820287,-1.152308 0.273429,-0.664041 0.273429,-1.484328 z"
         style="font-style:normal;font-variant:normal;font-weight:bold;font-stretch:normal;font-size:39.99874115px;font-family:Calibri;-inkscape-font-specification:'Calibri, Bold';font-variant-ligatures:normal;font-variant-caps:normal;font-variant-numeric:normal;font-feature-settings:normal;text-align:center;writing-mode:lr-tb;text-anchor:middle;fill:#000000"
         id="path829" />
    </g>
  </g>
</svg>
