<?xml version="1.0" encoding="UTF-8" standalone="no"?>
<!-- Created with Inkscape (http://www.inkscape.org/) -->

<svg
   xmlns:dc="http://purl.org/dc/elements/1.1/"
   xmlns:cc="http://creativecommons.org/ns#"
   xmlns:rdf="http://www.w3.org/1999/02/22-rdf-syntax-ns#"
   xmlns:svg="http://www.w3.org/2000/svg"
   xmlns="http://www.w3.org/2000/svg"
   xmlns:sodipodi="http://sodipodi.sourceforge.net/DTD/sodipodi-0.dtd"
   xmlns:inkscape="http://www.inkscape.org/namespaces/inkscape"
   width="48mm"
   height="48mm"
   viewBox="0 0 48 48"
   version="1.1"
   id="svg8"
   inkscape:version="0.92.3 (2405546, 2018-03-11)"
   sodipodi:docname="HexagonW_1.svg">
  <defs
     id="defs2" />
  <sodipodi:namedview
     id="base"
     pagecolor="#ffffff"
     bordercolor="#666666"
     borderopacity="1.0"
     inkscape:pageopacity="0.0"
     inkscape:pageshadow="2"
     inkscape:zoom="2.8"
     inkscape:cx="118.79144"
     inkscape:cy="57.413779"
     inkscape:document-units="mm"
     inkscape:current-layer="layer1"
     showgrid="false"
     inkscape:pagecheckerboard="true"
     inkscape:window-width="1920"
     inkscape:window-height="1137"
     inkscape:window-x="1352"
     inkscape:window-y="-8"
     inkscape:window-maximized="1" />
  <metadata
     id="metadata5">
    <rdf:RDF>
      <cc:Work
         rdf:about="">
        <dc:format>image/svg+xml</dc:format>
        <dc:type
           rdf:resource="http://purl.org/dc/dcmitype/StillImage" />
        <dc:title></dc:title>
      </cc:Work>
    </rdf:RDF>
  </metadata>
  <g
     inkscape:label="Layer 1"
     inkscape:groupmode="layer"
     id="layer1"
     transform="translate(0,-249)">
    <path
       sodipodi:type="star"
       style="fill:#000000;fill-opacity:1;stroke:none;stroke-width:0.95457381;stroke-linecap:round;stroke-miterlimit:4;stroke-dasharray:none;stroke-opacity:1"
       id="path815"
       sodipodi:sides="6"
       sodipodi:cx="24"
       sodipodi:cy="273"
       sodipodi:r1="23.556618"
       sodipodi:r2="20.400631"
       sodipodi:arg1="0"
       sodipodi:arg2="0.52359878"
       inkscape:flatsided="true"
       inkscape:rounded="0"
       inkscape:randomized="0"
       d="M 47.556618,273 35.778309,293.40063 H 12.221691 L 0.44338226,273 12.221691,252.59937 l 23.556618,0 z" />
    <g
       aria-label="1"
       transform="matrix(1.2519595,0,0,1.2519595,-9.4723811,322.0327)"
       style="font-style:normal;font-variant:normal;font-weight:bold;font-stretch:normal;font-size:39.99874115px;line-height:1.25;font-family:Calibri;-inkscape-font-specification:'Calibri, Bold';font-variant-ligatures:normal;font-variant-caps:normal;font-variant-numeric:normal;font-feature-settings:normal;text-align:start;letter-spacing:0px;word-spacing:0px;writing-mode:lr-tb;text-anchor:start;fill:#ffffff;fill-opacity:1;stroke:none"
       id="flowRoot817">
      <path
         d="m 34.509185,-28.393618 q 0,0.546858 -0.05859,0.93747 -0.05859,0.371082 -0.175775,0.60545 -0.09765,0.214837 -0.234368,0.31249 -0.136714,0.09765 -0.31249,0.09765 H 19.783086 q -0.156245,0 -0.292959,-0.09765 -0.136715,-0.09765 -0.253898,-0.31249 -0.09765,-0.234368 -0.156246,-0.60545 -0.05859,-0.390612 -0.05859,-0.93747 0,-0.566389 0.03906,-0.937471 0.05859,-0.390612 0.156245,-0.62498 0.117184,-0.234368 0.253898,-0.332021 0.136715,-0.117184 0.31249,-0.117184 h 4.706883 v -16.444795 l -4.062372,2.246024 q -0.449204,0.214837 -0.742164,0.273428 -0.273429,0.03906 -0.449204,-0.117183 -0.156246,-0.175776 -0.214837,-0.585919 -0.05859,-0.410144 -0.05859,-1.152308 0,-0.468735 0.01953,-0.761695 0.01953,-0.31249 0.09765,-0.527327 0.07812,-0.214837 0.214837,-0.351551 0.136715,-0.136715 0.371083,-0.29296 l 5.429516,-3.515514 q 0.09765,-0.07812 0.234368,-0.117184 0.156245,-0.05859 0.390612,-0.07812 0.234368,-0.03906 0.60545,-0.03906 0.390613,-0.01953 0.996063,-0.01953 0.742164,0 1.191368,0.03906 0.468736,0.01953 0.703103,0.09765 0.234368,0.05859 0.31249,0.175776 0.07812,0.117184 0.07812,0.292959 v 20.878249 h 4.120964 q 0.175776,0 0.31249,0.117184 0.156245,0.09765 0.253898,0.332021 0.117184,0.234368 0.156245,0.62498 0.05859,0.371082 0.05859,0.937471 z"
         style="font-style:normal;font-variant:normal;font-weight:bold;font-stretch:normal;font-size:39.99874115px;font-family:Calibri;-inkscape-font-specification:'Calibri, Bold';font-variant-ligatures:normal;font-variant-caps:normal;font-variant-numeric:normal;font-feature-settings:normal;text-align:start;writing-mode:lr-tb;text-anchor:start;fill:#ffffff"
         id="path5331"
         inkscape:connector-curvature="0" />
    </g>
  </g>
</svg>
