<?xml version="1.0" encoding="UTF-8" standalone="no"?>
<!-- Created with Inkscape (http://www.inkscape.org/) -->

<svg
   xmlns:dc="http://purl.org/dc/elements/1.1/"
   xmlns:cc="http://creativecommons.org/ns#"
   xmlns:rdf="http://www.w3.org/1999/02/22-rdf-syntax-ns#"
   xmlns:svg="http://www.w3.org/2000/svg"
   xmlns="http://www.w3.org/2000/svg"
   xmlns:sodipodi="http://sodipodi.sourceforge.net/DTD/sodipodi-0.dtd"
   xmlns:inkscape="http://www.inkscape.org/namespaces/inkscape"
   width="48mm"
   height="48mm"
   viewBox="0 0 48 48"
   version="1.1"
   id="svg8"
   inkscape:version="0.92.3 (2405546, 2018-03-11)"
   sodipodi:docname="Hexagon_4.svg">
  <defs
     id="defs2" />
  <sodipodi:namedview
     id="base"
     pagecolor="#ffffff"
     bordercolor="#666666"
     borderopacity="1.0"
     inkscape:pageopacity="0.0"
     inkscape:pageshadow="2"
     inkscape:zoom="2.8"
     inkscape:cx="-19.065704"
     inkscape:cy="126.34235"
     inkscape:document-units="mm"
     inkscape:current-layer="layer1"
     showgrid="false"
     inkscape:pagecheckerboard="true"
     inkscape:window-width="1920"
     inkscape:window-height="1137"
     inkscape:window-x="1352"
     inkscape:window-y="-8"
     inkscape:window-maximized="1" />
  <metadata
     id="metadata5">
    <rdf:RDF>
      <cc:Work
         rdf:about="">
        <dc:format>image/svg+xml</dc:format>
        <dc:type
           rdf:resource="http://purl.org/dc/dcmitype/StillImage" />
        <dc:title />
      </cc:Work>
    </rdf:RDF>
  </metadata>
  <g
     inkscape:label="Layer 1"
     inkscape:groupmode="layer"
     id="layer1"
     transform="translate(0,-249)">
    <path
       sodipodi:type="star"
       style="fill:#ffffff;fill-opacity:1;stroke:none;stroke-width:0.95457381;stroke-linecap:round;stroke-miterlimit:4;stroke-dasharray:none;stroke-opacity:1"
       id="path815"
       sodipodi:sides="6"
       sodipodi:cx="24"
       sodipodi:cy="273"
       sodipodi:r1="23.556618"
       sodipodi:r2="20.400631"
       sodipodi:arg1="0"
       sodipodi:arg2="0.52359878"
       inkscape:flatsided="true"
       inkscape:rounded="0"
       inkscape:randomized="0"
       d="M 47.556618,273 35.778309,293.40063 H 12.221691 L 0.44338226,273 12.221691,252.59937 l 23.556618,0 z" />
    <g
       aria-label="4"
       transform="matrix(1.2519595,0,0,1.2519595,-8.7388329,321.92267)"
       style="font-style:normal;font-variant:normal;font-weight:bold;font-stretch:normal;font-size:39.99874115px;line-height:1.25;font-family:Calibri;-inkscape-font-specification:'Calibri, Bold';font-variant-ligatures:normal;font-variant-caps:normal;font-variant-numeric:normal;font-feature-settings:normal;text-align:start;letter-spacing:0px;word-spacing:0px;writing-mode:lr-tb;text-anchor:start;fill:#000000;fill-opacity:1;stroke:none"
       id="flowRoot817">
      <path
         d="m 35.524778,-33.705951 q 0,0.996062 -0.214837,1.52339 -0.195306,0.507796 -0.546857,0.507796 h -2.246023 v 4.570169 q 0,0.195306 -0.117184,0.351551 -0.117184,0.136715 -0.410144,0.234368 -0.292959,0.09765 -0.761694,0.136714 -0.468736,0.05859 -1.2109,0.05859 -0.703103,0 -1.191369,-0.05859 -0.468735,-0.03906 -0.761694,-0.136714 -0.273429,-0.09765 -0.390613,-0.234368 -0.09765,-0.156245 -0.09765,-0.351551 v -4.570169 h -9.667665 q -0.273429,0 -0.488266,-0.05859 -0.214837,-0.07812 -0.371082,-0.31249 -0.136714,-0.253898 -0.214837,-0.703103 -0.05859,-0.468735 -0.05859,-1.23043 0,-0.62498 0.01953,-1.074185 0.03906,-0.468735 0.09765,-0.839817 0.07812,-0.371082 0.195307,-0.703103 0.136714,-0.332021 0.33202,-0.703103 l 7.851316,-13.84722 q 0.09765,-0.175776 0.332021,-0.29296 0.234367,-0.136714 0.644511,-0.214837 0.429674,-0.09765 1.074185,-0.136714 0.644511,-0.03906 1.56245,-0.03906 0.996063,0 1.699166,0.05859 0.703103,0.03906 1.113246,0.156245 0.429674,0.09765 0.62498,0.253899 0.195307,0.156245 0.195307,0.371082 v 15.214365 h 2.246023 q 0.31249,0 0.527327,0.488266 0.234367,0.468735 0.234367,1.581981 z M 27.57581,-47.396926 h -0.03906 l -6.659947,11.620728 h 6.699008 z"
         style="font-style:normal;font-variant:normal;font-weight:bold;font-stretch:normal;font-size:39.99874115px;font-family:Calibri;-inkscape-font-specification:'Calibri, Bold';font-variant-ligatures:normal;font-variant-caps:normal;font-variant-numeric:normal;font-feature-settings:normal;text-align:start;writing-mode:lr-tb;text-anchor:start;fill:#000000"
         id="path3663" />
    </g>
  </g>
</svg>
