<?xml version="1.0" encoding="UTF-8" standalone="no"?>
<!-- Created with Inkscape (http://www.inkscape.org/) -->

<svg
   xmlns:dc="http://purl.org/dc/elements/1.1/"
   xmlns:cc="http://creativecommons.org/ns#"
   xmlns:rdf="http://www.w3.org/1999/02/22-rdf-syntax-ns#"
   xmlns:svg="http://www.w3.org/2000/svg"
   xmlns="http://www.w3.org/2000/svg"
   xmlns:sodipodi="http://sodipodi.sourceforge.net/DTD/sodipodi-0.dtd"
   xmlns:inkscape="http://www.inkscape.org/namespaces/inkscape"
   width="50"
   height="50"
   viewBox="0 0 13.229166 13.229167"
   version="1.1"
   id="svg8"
   inkscape:version="0.92.3 (2405546, 2018-03-11)"
   sodipodi:docname="Mobility_Black.svg">
  <defs
     id="defs2" />
  <sodipodi:namedview
     id="base"
     pagecolor="#ffffff"
     bordercolor="#666666"
     borderopacity="1.0"
     inkscape:pageopacity="0.0"
     inkscape:pageshadow="2"
     inkscape:zoom="12.548148"
     inkscape:cx="20.59335"
     inkscape:cy="25.476237"
     inkscape:document-units="mm"
     inkscape:current-layer="layer1"
     showgrid="false"
     inkscape:pagecheckerboard="true"
     units="px"
     inkscape:window-width="1920"
     inkscape:window-height="1137"
     inkscape:window-x="1352"
     inkscape:window-y="-8"
     inkscape:window-maximized="1" />
  <metadata
     id="metadata5">
    <rdf:RDF>
      <cc:Work
         rdf:about="">
        <dc:format>image/svg+xml</dc:format>
        <dc:type
           rdf:resource="http://purl.org/dc/dcmitype/StillImage" />
        <dc:title></dc:title>
      </cc:Work>
    </rdf:RDF>
  </metadata>
  <g
     inkscape:label="Layer 1"
     inkscape:groupmode="layer"
     id="layer1"
     transform="translate(0,-283.77082)">
    <path
       style="fill:#000000;fill-opacity:1;stroke:none;stroke-width:0.26458332;stroke-linecap:round;stroke-miterlimit:4;stroke-dasharray:none;stroke-opacity:1"
       d="m 1.6612239,284.24546 6.4947379,3.95106 c 0.212441,0.12924 2.2345952,1.7837 2.3274642,2.01437 l -0.4899976,1.65808 1.2056696,2.95452 1.498344,0.59516 0.275898,0.97663 c 0.0676,0.2393 -3.0090889,0.3785 -3.1773155,0.19538 L 7.371625,293.95165 C 7.2033988,293.76853 4.3140422,293.25854 4.1943095,293.0406 l 0.3351583,-2.39863 -2.8399817,-2.1606 c -0.058928,-0.0448 0.1159351,-0.60606 0.1159351,-0.60606 l 0.4877867,-0.8467 -0.1589458,-0.92501 z"
       id="rect889"
       inkscape:connector-curvature="0"
       sodipodi:nodetypes="csscccsssscscccc" />
    <path
       style="fill:#ffffff;stroke-width:0.05636303"
       d="m 9.2646535,296.35342 c -0.8736311,-0.92127 -1.3893578,-1.35543 -2.2555392,-1.76501 -0.8661814,-0.40959 -1.3858847,-0.78228 -2.0495155,-0.97165 -0.3304572,-0.094 -0.8391399,-0.15906 -1.0400142,-0.63731 -0.2008743,-0.4782 0.066844,-1.12413 0.2150363,-1.76522 0.09869,-0.34646 -0.00676,-0.42273 -0.067927,-0.58884 -0.035117,-0.0954 -0.8713959,-0.6894 -1.6913729,-1.26121 -0.7142636,-0.49809 -1.2614765,-2.04172 -0.864866,-2.21061 0.4778816,-0.20351 0.7106276,0.10519 0.7827529,-0.12496 -0.5735263,-1.2348 -0.7503746,-1.39445 -0.9430907,-2.89992 0.011097,-0.45098 0.3748944,-0.44044 0.9424781,-0.0315 1.5010799,1.14976 2.9714564,2.25018 4.6828802,3.05327 0.8356012,0.37543 1.0918914,0.56428 1.5087587,0.95235 0.3147121,0.43734 0.1182696,1.03162 -0.076462,1.39521 -0.084448,0.016 -0.098635,-0.0268 -0.098635,-0.29764 0,-0.65227 -0.4193224,-1.09252 -1.5598785,-1.63775 -1.3299431,-0.61254 -2.5901094,-1.54149 -3.6974435,-2.29513 -0.3893541,-0.26588 -0.8838001,-0.48326 -1.113969,-0.73259 0.4102265,1.372 0.1755245,1.37955 1.3659251,2.66082 0.1975045,0.23389 0.8385344,0.51745 1.0289604,0.6098 1.670989,0.81037 2.4918186,1.3475 2.5956693,1.47976 0.117263,0.14934 0.025435,0.36749 -0.1125886,0.32001 -0.8617531,-0.40272 -4.2509456,-2.22825 -4.373033,-1.98434 -0.1022348,0.20425 1.3082824,2.10439 2.5672295,2.64457 1.023965,0.43935 1.8864025,0.71101 2.2049134,1.1792 0.1231549,0.28532 0.1542166,0.74242 0.077617,0.93306 -0.1022259,0 -0.4874225,-0.0198 -0.5408899,-0.34054 -0.054342,-0.32601 -0.201911,-0.44678 -0.7513783,-0.67124 C 5.6969169,291.2437 5.2680199,291.041 4.9710718,290.90415 L 4.851352,291.2064 c -0.2368887,0.4872 -0.2766466,0.61975 -0.298613,0.99565 -0.023381,0.40009 -0.01462,0.44541 0.1133191,0.586 0.2166659,0.2381 0.5694939,0.37573 1.8016833,0.70279 0.437916,0.11623 1.4843812,0.67352 1.728669,0.92059 0.015499,0.0156 0.1296351,0.10379 0.2536333,0.1959 0.2528201,0.18771 0.6481805,1.01463 1.0365044,1.46719 0.268995,0.3135 0.383485,0.38082 0.7890829,0.46405 0.459808,0.0943 1.058931,0.15036 1.430291,0.0722 0.201499,-0.0424 0.764601,-0.0554 0.78746,-0.0417 0.784716,-0.31058 0.04419,-1.22007 -0.355408,-1.3341 -0.713465,-0.17765 -1.179669,-0.12393 -1.694907,-1.16253 -0.259857,-0.6904 -0.6309744,-1.11754 -0.8954064,-1.8233 -0.118356,-0.38064 -0.045739,-0.79499 0.256914,-1.46592 0.2700264,-0.5986 0.4467534,-0.87803 0.5592134,-0.76557 0.0365,0.0365 0.603974,0.26229 0.438568,0.61027 -0.38981,0.82009 -0.583592,1.0203 -0.500478,1.42268 0.328157,0.95235 0.380322,1.15999 0.820812,2.07767 0.310375,0.63398 0.501003,0.6596 0.864868,0.74353 0.340636,0.0786 0.759119,0.16836 0.962909,0.36759 0.20379,0.19923 0.305497,1.29067 0.177734,1.47405 -0.325663,0.46746 -1.614537,0.23753 -2.148028,0.26181 -1.1467143,-0.10891 -1.0078105,10e-4 -1.7155195,-0.62183 z"
       id="path887"
       inkscape:connector-curvature="0"
       sodipodi:nodetypes="czczcsssccccccsccccsscssccccccccccccccccccsscccscscc" />
  </g>
</svg>
