<?xml version="1.0" encoding="UTF-8" standalone="no"?>
<!-- Created with Inkscape (http://www.inkscape.org/) -->

<svg
   xmlns:dc="http://purl.org/dc/elements/1.1/"
   xmlns:cc="http://creativecommons.org/ns#"
   xmlns:rdf="http://www.w3.org/1999/02/22-rdf-syntax-ns#"
   xmlns:svg="http://www.w3.org/2000/svg"
   xmlns="http://www.w3.org/2000/svg"
   xmlns:sodipodi="http://sodipodi.sourceforge.net/DTD/sodipodi-0.dtd"
   xmlns:inkscape="http://www.inkscape.org/namespaces/inkscape"
   width="50"
   height="50"
   viewBox="0 0 13.229166 13.229167"
   version="1.1"
   id="svg8"
   inkscape:version="0.92.3 (2405546, 2018-03-11)"
   sodipodi:docname="Mobile.svg">
  <defs
     id="defs2" />
  <sodipodi:namedview
     id="base"
     pagecolor="#ffffff"
     bordercolor="#666666"
     borderopacity="1.0"
     inkscape:pageopacity="0.0"
     inkscape:pageshadow="2"
     inkscape:zoom="3.3804626"
     inkscape:cx="-54.287535"
     inkscape:cy="4.0413682"
     inkscape:document-units="px"
     inkscape:current-layer="layer1"
     showgrid="false"
     inkscape:pagecheckerboard="true"
     units="px"
     inkscape:window-width="1920"
     inkscape:window-height="1137"
     inkscape:window-x="1352"
     inkscape:window-y="-8"
     inkscape:window-maximized="1" />
  <metadata
     id="metadata5">
    <rdf:RDF>
      <cc:Work
         rdf:about="">
        <dc:format>image/svg+xml</dc:format>
        <dc:type
           rdf:resource="http://purl.org/dc/dcmitype/StillImage" />
        <dc:title></dc:title>
      </cc:Work>
    </rdf:RDF>
  </metadata>
  <g
     inkscape:label="Layer 1"
     inkscape:groupmode="layer"
     id="layer1"
     transform="translate(0,-283.77082)">
    <circle
       style="fill:#000000;fill-opacity:1;stroke:#000000;stroke-width:0.52916676;stroke-linecap:round;stroke-miterlimit:4;stroke-dasharray:none;stroke-opacity:1"
       id="path4596-4-7-4"
       cx="6.7700152"
       cy="290.46017"
       r="6.3994336" />
    <g
       id="g4561-9-6-5-9"
       transform="matrix(2.220456,0,0,2.0075054,-7.5199721,-293.15594)">
      <path
         sodipodi:nodetypes="csscccsssscscccc"
         inkscape:connector-curvature="0"
         id="rect889-8-6-3-7"
         d="m 3.9440101,287.72715 2.9610739,1.80136 c 0.096859,0.059 1.0187945,0.81322 1.0611354,0.91839 l -0.2234,0.75595 0.5641079,1.54891 0.7263829,0.28575 0.068113,0.22897 c 0.032327,0.10865 -1.3719011,0.17257 -1.4485987,0.0891 l -1.1053298,-1.20317 c -0.076693,-0.0835 -1.39401,-0.316 -1.4485987,-0.41536 l 0.1528054,-1.09358 -1.2948011,-0.98506 c -0.026873,-0.0204 0.052858,-0.27632 0.052858,-0.27632 l 0.2223912,-0.38603 -0.072469,-0.42172 z"
         style="fill:#ffffff;fill-opacity:1;stroke:none;stroke-width:0.12062855;stroke-linecap:round;stroke-miterlimit:4;stroke-dasharray:none;stroke-opacity:1" />
      <path
         sodipodi:nodetypes="czczcsssccccccsccccsscssccccccccccccccccccsscccczscc"
         inkscape:connector-curvature="0"
         id="path887-7-5-5-4"
         d="m 7.4105579,293.24739 c -0.3983053,-0.42001 -0.6334344,-0.61796 -1.0283429,-0.8047 -0.3949086,-0.18673 -0.6318513,-0.35665 -0.9344133,-0.44299 -0.1506624,-0.0429 -0.3825799,-0.0725 -0.4741626,-0.29056 -0.091582,-0.21802 0.030475,-0.51251 0.098034,-0.8048 0.044998,-0.15796 -0.0031,-0.19273 -0.030963,-0.26846 -0.016008,-0.0435 -0.3972865,-0.31431 -0.7711294,-0.57501 -0.3256464,-0.22709 -0.5751308,-0.93086 -0.3943088,-1.00786 0.2178758,-0.0928 0.323989,0.048 0.3568724,-0.057 -0.2614816,-0.56296 -0.3421103,-0.63575 -0.4299737,-1.32212 0.0051,-0.20561 0.1709221,-0.20081 0.4296943,-0.0144 0.6843702,0.52421 1.3547433,1.0259 2.1350131,1.39205 0.3809668,0.17116 0.4978146,0.25726 0.6878723,0.43419 0.1434831,0.19939 0.053923,0.47033 -0.034865,0.6361 -0.038502,0.008 -0.044965,-0.0122 -0.044965,-0.13569 0,-0.29738 -0.1911763,-0.49811 -0.7111785,-0.74669 -0.6063457,-0.27927 -1.18088,-0.70279 -1.6857342,-1.04639 -0.1775139,-0.12122 -0.4029415,-0.22033 -0.5078796,-0.334 0.1870301,0.62552 0.08003,0.62896 0.6227508,1.21311 0.090041,0.10665 0.3823037,0.23593 0.4691228,0.27803 0.7618361,0.36946 1.1360681,0.61434 1.1834154,0.67465 0.053468,0.0681 0.011596,0.16754 -0.051328,0.14589 -0.3928898,-0.1836 -1.9380865,-1.0159 -1.9937483,-0.90469 -0.046606,0.0931 0.5964702,0.95942 1.170448,1.20571 0.4668458,0.2003 0.8600472,0.32416 1.0052619,0.53762 0.056151,0.13008 0.070308,0.33848 0.035387,0.42539 -0.046606,0 -0.222226,-0.009 -0.246602,-0.15526 -0.024777,-0.14863 -0.092058,-0.20369 -0.3425681,-0.30603 -0.1383048,-0.0558 -0.3338468,-0.14817 -0.4692315,-0.21057 l -0.054588,0.1378 c -0.1080001,0.22213 -0.126129,0.28256 -0.1361442,0.45394 -0.010643,0.18241 -0.00665,0.20308 0.051661,0.26718 0.098777,0.10853 0.2596425,0.1713 0.8214212,0.3204 0.1996538,0.053 0.6767575,0.30708 0.7881332,0.41972 0.0071,0.007 0.0591,0.0473 0.1156361,0.0894 0.1152658,0.0856 0.295518,0.4626 0.4725618,0.66892 0.1226402,0.14294 0.1748377,0.17363 0.3597581,0.21158 0.2096345,0.043 0.4827864,0.0685 0.6520966,0.0329 0.09187,-0.0193 0.3485967,-0.0253 0.3590176,-0.0191 0.357767,-0.1416 -0.00865,-0.36399 -0.190877,-0.41598 -0.3252817,-0.081 -0.5089937,-0.15263 -0.7439,-0.62615 -0.1184741,-0.31477 -0.2876734,-0.60564 -0.4082328,-0.9274 -0.053967,-0.17354 -0.020853,-0.36246 0.1171316,-0.66835 0.1231103,-0.27291 0.2036835,-0.40031 0.2549564,-0.34904 0.01664,0.0166 0.2753635,0.11958 0.1999508,0.27824 -0.1777211,0.3739 -0.2660701,0.46517 -0.228177,0.64863 0.1496126,0.43418 0.1733966,0.62498 0.3742243,1.04337 0.1415054,0.28905 0.199574,0.39687 0.3654697,0.43513 0.1552997,0.0358 0.3460968,0.0767 0.4390088,0.16759 0.092912,0.0908 0.1681217,0.39618 0.1098735,0.47978 -0.1484751,0.21313 -0.7360976,0.10831 -0.9793261,0.11937 -0.5228091,-0.0497 -0.4594802,4.6e-4 -0.7821378,-0.28351 z"
         style="fill:#000000;stroke-width:0.02569697" />
    </g>
  </g>
</svg>
