<?xml version="1.0" encoding="UTF-8" standalone="no"?>
<!-- Created with Inkscape (http://www.inkscape.org/) -->

<svg
   xmlns:dc="http://purl.org/dc/elements/1.1/"
   xmlns:cc="http://creativecommons.org/ns#"
   xmlns:rdf="http://www.w3.org/1999/02/22-rdf-syntax-ns#"
   xmlns:svg="http://www.w3.org/2000/svg"
   xmlns="http://www.w3.org/2000/svg"
   xmlns:sodipodi="http://sodipodi.sourceforge.net/DTD/sodipodi-0.dtd"
   xmlns:inkscape="http://www.inkscape.org/namespaces/inkscape"
   width="48"
   height="48"
   viewBox="0 0 12.7 12.7"
   version="1.1"
   id="svg4540"
   inkscape:version="0.92.3 (2405546, 2018-03-11)"
   sodipodi:docname="dmg_white.html">
  <defs
     id="defs4534" />
  <sodipodi:namedview
     id="base"
     pagecolor="#ffffff"
     bordercolor="#666666"
     borderopacity="1.0"
     inkscape:pageopacity="0.0"
     inkscape:pageshadow="2"
     inkscape:zoom="11.2"
     inkscape:cx="25.098643"
     inkscape:cy="20.875576"
     inkscape:document-units="mm"
     inkscape:current-layer="layer1"
     showgrid="false"
     inkscape:pagecheckerboard="true"
     units="px"
     inkscape:window-width="1920"
     inkscape:window-height="1017"
     inkscape:window-x="1352"
     inkscape:window-y="-8"
     inkscape:window-maximized="1" />
  <metadata
     id="metadata4537">
    <rdf:RDF>
      <cc:Work
         rdf:about="">
        <dc:format>image/svg+xml</dc:format>
        <dc:type
           rdf:resource="http://purl.org/dc/dcmitype/StillImage" />
        <dc:title></dc:title>
      </cc:Work>
    </rdf:RDF>
  </metadata>
  <g
     inkscape:label="Layer 1"
     inkscape:groupmode="layer"
     id="layer1"
     transform="translate(0,-284.29998)">
    <path
       style="fill:#fefefe;fill-opacity:1;stroke-width:0.28016889;stroke-miterlimit:4;stroke-dasharray:none;stroke:#000000;stroke-opacity:1"
       d="m 6.2742166,285.3357 c -2.7921555,-4e-5 -5.0222225,1.32249 -5.0220967,4.36551 8.45e-5,1.4366 0.7154751,2.04794 1.4350545,3.86185 -0.011724,0.10866 -0.017587,0.21767 -0.017571,0.3268 4.97e-5,1.83594 0.2025499,2.41067 3.6734561,2.43593 3.4540211,0.0251 3.6025357,-0.59999 3.6025854,-2.43593 -0.00124,-0.11033 -0.00847,-0.22058 -0.021704,-0.33028 0.4697571,-2.38027 1.4371671,-2.42235 1.4391891,-3.85837 1.27e-4,-3.04302 -2.2967582,-4.36555 -5.0889134,-4.36551 z"
       id="path4542"
       inkscape:connector-curvature="0"
       sodipodi:nodetypes="ccccscccc" />
    <rect
       ry="0.2001449"
       style="fill:#000000;fill-opacity:1;stroke-width:0.15554783;stroke-miterlimit:4;stroke-dasharray:none"
       id="rect4551"
       width="0.65146947"
       height="1.5395763"
       x="4.1635118"
       y="294.73114" />
    <rect
       ry="0.2085903"
       style="fill:#000000;fill-opacity:1;stroke-width:0.1587957;stroke-miterlimit:4;stroke-dasharray:none"
       id="rect4551-4"
       width="0.65146947"
       height="1.6045409"
       x="5.3600154"
       y="294.73114" />
    <rect
       ry="0.21012583"
       style="fill:#000000;fill-opacity:1;stroke-width:0.15937911;stroke-miterlimit:4;stroke-dasharray:none"
       id="rect4551-0"
       width="0.65146947"
       height="1.6163527"
       x="6.5565186"
       y="294.73114" />
    <rect
       ry="0.21166137"
       style="fill:#000000;fill-opacity:1;stroke-width:0.15996039;stroke-miterlimit:4;stroke-dasharray:none"
       id="rect4551-4-1"
       width="0.65146947"
       height="1.6281644"
       x="7.7530222"
       y="294.73114" />
    <path
       sodipodi:nodetypes="cscsc"
       inkscape:connector-curvature="0"
       id="path4586-1"
       d="m 7.2169471,292.99567 c 0.1360651,0.17012 -0.1227718,0.79515 -0.4026269,0.78784 -0.2719476,-0.007 -0.438321,-0.32197 -0.402627,-0.76833 -4e-7,-0.52352 0.2345718,-0.93508 0.402627,-0.76834 0.093385,0.0926 0.1479392,0.45336 0.4026269,0.74883 z"
       style="fill:#000000;fill-opacity:1;stroke-width:0.19620721;stroke-miterlimit:4;stroke-dasharray:none" />
    <path
       style="fill:#ffffff;stroke:#000000;stroke-width:0.1984375;stroke-linecap:round;stroke-linejoin:miter;stroke-miterlimit:4;stroke-dasharray:none;stroke-opacity:1;fill-opacity:1"
       d="m 9.9891984,290.0618 c 0.1419866,0.74335 -0.1169305,1.55217 0.2672696,1.58558 0.3842,0.0334 1.122986,0.3729 1.220604,0.99181 -0.475876,1.18269 -0.925889,1.42984 -1.5531307,1.21967 l -0.2046283,-0.0167"
       id="path4616"
       inkscape:connector-curvature="0"
       sodipodi:nodetypes="ccccc" />
    <path
       style="fill:#000000;fill-opacity:1;stroke:none;stroke-width:0.26499999;stroke-linecap:round;stroke-miterlimit:4;stroke-dasharray:none;stroke-opacity:1"
       d="m 9.4212512,291.02096 c 1.5e-6,0.70777 -0.5561498,1.11185 -1.2778825,0.87698 -0.6695499,-0.21789 -1.3062403,-0.30355 -1.2778824,-0.87698 -0.055348,-0.65038 0.4915198,-0.70855 1.2444737,-0.69085 0.6974089,0.0164 1.3112927,0.18037 1.3112912,0.69085 z"
       id="path5162"
       inkscape:connector-curvature="0"
       sodipodi:nodetypes="cscsc" />
    <path
       style="fill:#000000;fill-opacity:1;stroke:none;stroke-width:0.26499999;stroke-linecap:round;stroke-miterlimit:4;stroke-dasharray:none;stroke-opacity:1"
       d="m 3.1898648,291.02406 c -1.5e-6,0.70777 0.5561498,1.11185 1.2778825,0.87698 0.6695499,-0.21789 1.3062403,-0.30355 1.2778824,-0.87698 0.055348,-0.65038 -0.5249285,-0.65844 -1.2778824,-0.64074 -0.6974089,0.0164 -1.277884,0.13026 -1.2778825,0.64074 z"
       id="path5162-5"
       inkscape:connector-curvature="0"
       sodipodi:nodetypes="cscsc" />
    <path
       sodipodi:nodetypes="cscsc"
       inkscape:connector-curvature="0"
       id="path4586-1-2"
       d="m 5.3865338,293.00579 c -0.1360651,0.17013 0.1227718,0.79516 0.4026269,0.78785 0.2719476,-0.007 0.438321,-0.32198 0.402627,-0.76833 4e-7,-0.52353 -0.2345718,-0.93508 -0.402627,-0.76835 -0.093385,0.0927 -0.1479392,0.45336 -0.4026269,0.74883 z"
       style="fill:#000000;fill-opacity:1;stroke-width:0.19620723;stroke-miterlimit:4;stroke-dasharray:none" />
    <path
       style="fill:#ffffff;stroke:#000000;stroke-width:0.1984375;stroke-linecap:round;stroke-linejoin:miter;stroke-miterlimit:4;stroke-dasharray:none;stroke-opacity:1;fill-opacity:1"
       d="m 2.5616213,290.0618 c -0.141986,0.74335 0.116931,1.55217 -0.267269,1.58558 -0.3842,0.0334 -1.122986,0.3729 -1.220604,0.99181 0.475876,1.18269 0.925889,1.42984 1.55313,1.21967 h 0.2630943"
       id="path4616-7"
       inkscape:connector-curvature="0"
       sodipodi:nodetypes="ccccc" />
  </g>
</svg>
