<?xml version="1.0" encoding="UTF-8" standalone="no"?>
<!-- Created with Inkscape (http://www.inkscape.org/) -->

<svg
   width="110"
   height="100"
   viewBox="0 0 29.104167 26.458333"
   version="1.1"
   id="svg8"
   inkscape:version="1.3.2 (091e20e, 2023-11-25, custom)"
   sodipodi:docname="1XP.html"
   xmlns:inkscape="http://www.inkscape.org/namespaces/inkscape"
   xmlns:sodipodi="http://sodipodi.sourceforge.net/DTD/sodipodi-0.dtd"
   xmlns="http://www.w3.org/2000/svg"
   xmlns:svg="http://www.w3.org/2000/svg"
   xmlns:rdf="http://www.w3.org/1999/02/22-rdf-syntax-ns#"
   xmlns:cc="http://creativecommons.org/ns#"
   xmlns:dc="http://purl.org/dc/elements/1.1/">
  <defs
     id="defs2">
    <inkscape:path-effect
       effect="mirror_symmetry"
       start_point="25.342804,251.56647"
       end_point="25.342804,294.28054"
       center_point="25.342804,272.92351"
       id="path-effect2"
       is_visible="true"
       lpeversion="1.2"
       lpesatellites=""
       mode="vertical"
       discard_orig_path="false"
       fuse_paths="true"
       oposite_fuse="false"
       split_items="false"
       split_open="false"
       link_styles="false" />
    <inkscape:path-effect
       effect="mirror_symmetry"
       start_point="105.43169,250.95627"
       end_point="107.10973,308.77281"
       center_point="106.27071,279.86454"
       id="path-effect1"
       is_visible="true"
       lpeversion="1.2"
       lpesatellites=""
       mode="free"
       discard_orig_path="false"
       fuse_paths="true"
       oposite_fuse="true"
       split_items="false"
       split_open="false"
       link_styles="false" />
  </defs>
  <sodipodi:namedview
     id="base"
     pagecolor="#6a6a6a"
     bordercolor="#666666"
     borderopacity="1.0"
     inkscape:pageopacity="0.0"
     inkscape:pageshadow="2"
     inkscape:zoom="0.70000001"
     inkscape:cx="-158.57143"
     inkscape:cy="102.14286"
     inkscape:document-units="px"
     inkscape:current-layer="layer1-9"
     showgrid="false"
     units="px"
     inkscape:pagecheckerboard="true"
     inkscape:snap-text-baseline="true"
     inkscape:window-width="1920"
     inkscape:window-height="1009"
     inkscape:window-x="1912"
     inkscape:window-y="1072"
     inkscape:window-maximized="1"
     inkscape:showpageshadow="0"
     inkscape:deskcolor="#505050"
     showborder="true" />
  <metadata
     id="metadata5">
    <rdf:RDF>
      <cc:Work
         rdf:about="">
        <dc:format>image/svg+xml</dc:format>
        <dc:type
           rdf:resource="http://purl.org/dc/dcmitype/StillImage" />
      </cc:Work>
    </rdf:RDF>
  </metadata>
  <g
     inkscape:label="Layer 1"
     inkscape:groupmode="layer"
     id="layer1"
     transform="translate(0,-270.54168)">
    <g
       transform="matrix(0.47925172,0,0,0.47925172,2.8615729,151.81179)"
       id="layer1-3"
       inkscape:label="Layer 1">
      <g
         style="font-style:normal;font-variant:normal;font-weight:bold;font-stretch:normal;font-size:39.99874115px;line-height:1.25;font-family:Calibri;-inkscape-font-specification:'Calibri, Bold';font-variant-ligatures:normal;font-variant-caps:normal;font-variant-numeric:normal;font-feature-settings:normal;text-align:center;letter-spacing:0px;word-spacing:0px;writing-mode:lr-tb;text-anchor:middle;fill:#000000;fill-opacity:1;stroke:#ffffff;stroke-width:2.59180784;stroke-miterlimit:4;stroke-dasharray:none;stroke-opacity:1;paint-order:markers stroke fill"
         inkscape:label="Layer 1"
         id="layer1-8"
         transform="matrix(2.0865862,0,0,2.0865862,125.54456,-211.28553)" />
      <g
         transform="matrix(1.292492,0,0,1.292492,-8.3621147,-77.407508)"
         id="layer1-9"
         inkscape:label="Layer 1"
         style="stroke:#000000;stroke-width:1.5;stroke-miterlimit:4;stroke-dasharray:none;stroke-opacity:1">
        <flowRoot
           xml:space="preserve"
           id="flowRoot8266"
           style="font-style:normal;font-variant:normal;font-weight:normal;font-stretch:normal;font-size:40px;line-height:1.25;font-family:'Lilita One';-inkscape-font-specification:'Lilita One';letter-spacing:0px;word-spacing:0px;fill:#000000;fill-opacity:1;stroke:none"
           transform="matrix(1.0350275,0,0,1.0350275,-125.69175,238.6005)"><flowRegion
             id="flowRegion8268"><rect
               id="rect8270"
               width="164.14978"
               height="104.04571"
               x="1.5152287"
               y="15.147187" /></flowRegion><flowPara
             id="flowPara8272">XP</flowPara></flowRoot>
        <path
           d="m 21.022366,263.13673 c 0.266227,-0.66557 1.652824,-0.99835 4.159792,-0.99835 0.643381,0 1.430969,0.0555 2.362763,0.16639 0.953978,0.0887 1.430968,0.17749 1.430968,0.26623 l -5.657318,11.51431 5.856988,11.01513 c 0.06656,0.11093 -0.410432,0.22185 -1.430968,0.33278 -1.020537,0.0887 -1.885774,0.13311 -2.595711,0.13311 -2.817567,0 -4.359463,-0.37715 -4.625689,-1.13146 l -2.495875,-6.35616 -2.262928,6.55583 c -0.221855,0.62119 -1.64173,0.93179 -4.259625,0.93179 -0.64338,0 -1.44206,-0.0444 -2.3960395,-0.13311 -0.953979,-0.0887 -1.3865974,-0.21076 -1.2978551,-0.36606 L 13.002288,273.55285 7.6111983,262.571 c -0.066557,-0.11092 0.3882473,-0.21075 1.3644119,-0.2995 0.9983503,-0.11093 1.8414018,-0.16639 2.5291528,-0.16639 2.79538,0 4.326182,0.39933 4.592409,1.19802 l 2.296205,5.59076 z m 11.218054,22.46288 c -2.018887,0 -3.028328,-0.22185 -3.028328,-0.66556 v -21.56437 c 0,-0.75431 0.343875,-1.13146 1.031628,-1.13146 h 5.856987 c 3.283463,0 5.646226,0.67666 7.088287,2.02998 1.464246,1.35332 2.19637,3.31674 2.19637,5.89026 0,2.12982 -0.687753,4.08214 -2.063257,5.85699 -0.687753,0.88742 -1.697196,1.59736 -3.028329,2.12982 -1.331133,0.53245 -2.884123,0.79868 -4.658967,0.79868 v 5.95682 c 0,0.26623 -0.421526,0.4548 -1.264577,0.56573 -0.820866,0.0887 -1.530804,0.13311 -2.129814,0.13311 z m 3.394391,-17.57096 v 5.25798 h 0.432618 c 0.776494,0 1.430968,-0.24404 1.963421,-0.73213 0.532455,-0.48807 0.798681,-1.17582 0.798681,-2.06326 0,-0.88742 -0.188578,-1.5197 -0.565731,-1.89686 -0.35497,-0.37716 -0.998351,-0.56573 -1.930144,-0.56573 z"
           id="flowRoot8266-2"
           style="font-size:40px;line-height:1.25;font-family:'Lilita One';-inkscape-font-specification:'Lilita One';letter-spacing:0px;word-spacing:0px;stroke:#ffffff;stroke-width:5.60532;stroke-linecap:square;stroke-linejoin:miter;stroke-dasharray:none;stroke-opacity:1;paint-order:stroke fill markers"
           aria-label="XP"
           sodipodi:nodetypes="cscccccscccssccccscccssssscssscscsccssscsc" />
        <path
           style="fill:none;stroke:#000000;stroke-width:0.427141px;stroke-linecap:butt;stroke-linejoin:miter;stroke-opacity:1"
           d=""
           id="path1"
           inkscape:path-effect="#path-effect1"
           inkscape:original-d="m 105.43168,251.10882 -9.458115,17.54328 7.322415,40.46395 3.81375,0.15255 z"
           sodipodi:nodetypes="ccccc" />
        <path
           id="path2"
           style="fill:#ffffff;fill-opacity:1;stroke:#000000;stroke-width:0.851476;stroke-linecap:butt;stroke-linejoin:miter;stroke-dasharray:none;stroke-opacity:1"
           d="m 48.418292,258.21029 c -1.304825,0.11878 -6.903817,0.62955 -10.859834,1.01318 -12.869911,10.708 -12.483893,11.03952 -20.318551,17.32069 l -4.803106,-4.2906 -2.146753,2.09311 3.116941,4.23391 c -1.607136,1.8199 -4.6259715,4.49991 -6.3874223,5.41702 a 3.3961883,3.3961883 0 0 0 -3.5284064,0.13866 3.3961883,3.3961883 0 0 0 -0.9376537,4.71123 3.3961883,3.3961883 0 0 0 4.7112309,0.93765 3.3961883,3.3961883 0 0 0 1.4860848,-3.21106 c 1.5253787,-1.27567 5.1494637,-3.03515 7.4429087,-3.82194 l 2.719831,4.5035 2.753577,-1.18474 -2.123295,-6.0779 c 8.802283,-4.83269 8.959421,-4.35113 23.7791,-12.14042 1.869086,-3.50766 4.486094,-8.48241 5.095348,-9.64236 z" />
      </g>
    </g>
  </g>
</svg>
